<svg fill="#000000" height="800px" width="800px" version="1.1" id="Layer_1" xmlns="http://www.w3.org/2000/svg" xmlns:xlink="http://www.w3.org/1999/xlink" 
	 viewBox="0 0 512 512" xml:space="preserve">
		<path d="M487.864,180.209c-28.219-30.133-71.755-30.133-92.68-30.133H116.816c-0.001,0-0.001,0-0.001,0
			c-20.923,0-64.46,0-92.679,30.133c-18.082,19.308-26.07,47.058-23.743,82.479c1.902,28.962,12.356,53.644,30.231,71.38
			c18.364,18.223,43.271,27.854,72.03,27.854c29.599,0,59.82-14.878,85.095-41.892c21.551-23.035,37.115-52.501,43.045-79.678
			c5.621-8.347,15.083-13.451,25.204-13.451s19.583,5.104,25.205,13.451c5.93,27.179,21.494,56.646,43.046,79.68
			c25.274,27.014,55.494,41.891,85.093,41.891c28.759,0,53.667-9.632,72.031-27.854c17.875-17.737,28.327-42.42,30.231-71.38
			C513.933,227.267,505.945,199.518,487.864,180.209z M338.645,191.072c20.967-6.863,46.523-7.603,56.541-7.603
			c13.98,0,37.592,0.011,55.859,10.041H332.069C334.112,192.657,336.294,191.841,338.645,191.072z M116.816,183.468
			c10.015,0,35.571,0.741,56.538,7.603c2.352,0.77,4.534,1.585,6.577,2.438H60.954C79.222,183.48,102.834,183.468,116.816,183.468z
			 M102.655,328.532c-13.456,0-25.523-2.92-35.638-8.532h67.345C123.809,325.59,113.06,328.532,102.655,328.532z M172.361,286.609
			H39.123c-1.554-4.143-2.794-8.537-3.711-13.157h146.037C178.671,277.956,175.631,282.366,172.361,286.609z M196.56,240.059H33.903
			c0.443-4.682,1.169-9.079,2.206-13.159h163.29C198.819,231.146,197.861,235.556,196.56,240.059z M281.319,198.79
			c-7.879-3.422-16.478-5.28-25.32-5.28s-17.44,1.858-25.321,5.28c-1.717-5.064-4.408-10.272-8.47-15.321h67.581
			C285.728,188.517,283.037,193.725,281.319,198.79z M409.343,328.532c-10.404,0-21.151-2.941-31.707-8.532h67.345
			C434.866,325.612,422.8,328.532,409.343,328.532z M472.876,286.609H339.639c-3.27-4.244-6.311-8.653-9.088-13.157h146.037
			C475.67,278.071,474.431,282.467,472.876,286.609z M315.439,240.059c-1.301-4.503-2.257-8.913-2.838-13.159h163.29
			c1.037,4.079,1.763,8.477,2.206,13.159H315.439z"/>
</svg>