<svg xmlns="http://www.w3.org/2000/svg" xmlns:xlink="http://www.w3.org/1999/xlink" xml:space="preserve" viewBox="0 0 32.22 32.22"><defs><path id="reuse-0" d="M19 19.77h3v3h-3v-3z"/><path id="reuse-1" d="M17 16.77h7v5h-7v-5z"/><path id="reuse-2" d="M21 20.77h1v1h-1v-1z"/><path id="reuse-3" d="M21 20.77h2v2h-2v-2z"/><path id="reuse-4" d="M22 21.77h1v1h-1v-1z"/><path id="reuse-5" d="M22 20.77h2v2h-2v-2z"/><path id="reuse-6" d="M23 20.77h1v1h-1v-1z"/><path id="reuse-7" d="M22 20.77h1v1h-1v-1z"/><path id="reuse-8" d="M21 19.77h1v2h-1v-2z"/><path id="reuse-9" d="M20 19.77h2v2h-2v-2z"/><path id="reuse-10" d="M20 19.77h2v1h-2v-1z"/><path id="reuse-11" d="M2 5.77h5v6H2v-6z"/><path id="reuse-12" d="M18 16.77h2v2h-2v-2z"/><path id="reuse-13" d="M19 19.77h2v2h-2v-2z"/><path id="reuse-14" d="M20 21.77h1v1h-1v-1z"/><path id="reuse-15" d="M18 15.77h2v2h-2v-2z"/><path id="reuse-16" d="M21 17.77h1v2h-1v-2z"/><path id="reuse-17" d="M22 19.77h2v1h-2v-1z"/><path id="reuse-18" d="M17 15.77h6v6h-6v-6z"/><path id="reuse-19" d="M7 1.77h7v7H7v-7z"/><path id="reuse-20" d="M21 6.77h4v5h-4v-5z"/><path id="reuse-21" d="M21 3.77h3v3h-3v-3z"/><path id="reuse-22" d="M20 12.77h5v5h-5v-5z"/><path id="reuse-23" d="M6 12.77h5v5H6v-5z"/><path id="reuse-24" d="M14 11.77h4v5h-4v-5z"/><path id="reuse-25" d="M15 20.77h5v3h-5v-3z"/><path id="reuse-26" d="M14 3.77h3v4h-3v-4z"/><path id="reuse-27" d="M1 18.77h5v5H1v-5z"/><path id="reuse-28" d="M14 22.77h2v2h-2v-2z"/><path id="reuse-29" d="M6 16.77h3v2H6v-2z"/><path id="reuse-30" d="M2 10.77h2v2H2v-2z"/><path id="reuse-31" d="M7 7.77h4v2H7v-2z"/><path id="reuse-32" d="M13 14.77h2v2h-2v-2z"/><path id="reuse-33" d="M20 15.77h1v3h-1v-3z"/><path id="reuse-34" d="M20 8.77h3v3h-3v-3z"/><path id="reuse-35" d="M13 6.77h3v2h-3v-2z"/><path id="reuse-36" d="M21 4.77h2v2h-2v-2z"/></defs><defs><clipPath id="a"><use xlink:href="#reuse-0"/></clipPath><clipPath id="O"><use xlink:href="#reuse-0"/></clipPath><clipPath id="P"><path d="M19 20h3v3h-3v-3z"/></clipPath><clipPath id="b"><use xlink:href="#reuse-1"/></clipPath><clipPath id="T"><use xlink:href="#reuse-1"/></clipPath><clipPath id="U"><path d="M17 17h7v5h-7v-5z"/></clipPath><clipPath id="c"><use xlink:href="#reuse-2"/></clipPath><clipPath id="X"><use xlink:href="#reuse-2"/></clipPath><clipPath id="Y"><path d="M21 21h1v1h-1v-1z"/></clipPath><clipPath id="d"><use xlink:href="#reuse-3"/></clipPath><clipPath id="aa"><use xlink:href="#reuse-3"/></clipPath><clipPath id="ab"><path d="M21 21h2v2h-2v-2z"/></clipPath><clipPath id="e"><use xlink:href="#reuse-4"/></clipPath><clipPath id="ad"><use xlink:href="#reuse-4"/></clipPath><clipPath id="ae"><path d="M22 22h1v1h-1v-1z"/></clipPath><clipPath id="f"><use xlink:href="#reuse-5"/></clipPath><clipPath id="ag"><use xlink:href="#reuse-5"/></clipPath><clipPath id="ah"><path d="M22 21h2v2h-2v-2z"/></clipPath><clipPath id="g"><use xlink:href="#reuse-6"/></clipPath><clipPath id="aj"><use xlink:href="#reuse-6"/></clipPath><clipPath id="ak"><path d="M23 21h1v1h-1v-1z"/></clipPath><clipPath id="h"><use xlink:href="#reuse-7"/></clipPath><clipPath id="am"><use xlink:href="#reuse-7"/></clipPath><clipPath id="an"><path d="M22 21h1v1h-1v-1z"/></clipPath><clipPath id="i"><use xlink:href="#reuse-8"/></clipPath><clipPath id="ap"><use xlink:href="#reuse-8"/></clipPath><clipPath id="aq"><path d="M21 20h1v2h-1v-2z"/></clipPath><clipPath id="j"><use xlink:href="#reuse-9"/></clipPath><clipPath id="as"><use xlink:href="#reuse-9"/></clipPath><clipPath id="at"><path d="M20 20h2v2h-2v-2z"/></clipPath><clipPath id="k"><use xlink:href="#reuse-10"/></clipPath><clipPath id="av"><use xlink:href="#reuse-10"/></clipPath><clipPath id="aw"><path d="M20 20h2v1h-2v-1z"/></clipPath><clipPath id="l"><use xlink:href="#reuse-11"/></clipPath><clipPath id="aE"><use xlink:href="#reuse-11"/></clipPath><clipPath id="aF"><path d="M2 6h5v6H2V6z"/></clipPath><clipPath id="m"><use xlink:href="#reuse-12"/></clipPath><clipPath id="aJ"><use xlink:href="#reuse-12"/></clipPath><clipPath id="aK"><path d="M18 17h2v2h-2v-2z"/></clipPath><clipPath id="n"><use xlink:href="#reuse-13"/></clipPath><clipPath id="aM"><use xlink:href="#reuse-13"/></clipPath><clipPath id="aN"><path d="M19 20h2v2h-2v-2z"/></clipPath><clipPath id="o"><use xlink:href="#reuse-14"/></clipPath><clipPath id="aP"><use xlink:href="#reuse-14"/></clipPath><clipPath id="aQ"><path d="M20 22h1v1h-1v-1z"/></clipPath><clipPath id="p"><use xlink:href="#reuse-15"/></clipPath><clipPath id="aS"><use xlink:href="#reuse-15"/></clipPath><clipPath id="aT"><path d="M18 16h2v2h-2v-2z"/></clipPath><clipPath id="q"><use xlink:href="#reuse-16"/></clipPath><clipPath id="aV"><use xlink:href="#reuse-16"/></clipPath><clipPath id="aW"><path d="M21 18h1v2h-1v-2z"/></clipPath><clipPath id="r"><use xlink:href="#reuse-17"/></clipPath><clipPath id="aY"><use xlink:href="#reuse-17"/></clipPath><clipPath id="aZ"><path d="M22 20h2v1h-2v-1z"/></clipPath><clipPath id="s"><use xlink:href="#reuse-18"/></clipPath><clipPath id="bb"><use xlink:href="#reuse-18"/></clipPath><clipPath id="bc"><path d="M17 16h6v6h-6v-6z"/></clipPath><clipPath id="t"><use xlink:href="#reuse-19"/></clipPath><clipPath id="be"><use xlink:href="#reuse-19"/></clipPath><clipPath id="bf"><path d="M7 2h7v7H7V2z"/></clipPath><clipPath id="u"><use xlink:href="#reuse-20"/></clipPath><clipPath id="bh"><use xlink:href="#reuse-20"/></clipPath><clipPath id="bi"><path d="M21 7h4v5h-4V7z"/></clipPath><clipPath id="v"><use xlink:href="#reuse-21"/></clipPath><clipPath id="bk"><use xlink:href="#reuse-21"/></clipPath><clipPath id="bl"><path d="M21 4h3v3h-3V4z"/></clipPath><clipPath id="w"><use xlink:href="#reuse-22"/></clipPath><clipPath id="bn"><use xlink:href="#reuse-22"/></clipPath><clipPath id="bo"><path d="M20 13h5v5h-5v-5z"/></clipPath><clipPath id="x"><use xlink:href="#reuse-23"/></clipPath><clipPath id="bq"><use xlink:href="#reuse-23"/></clipPath><clipPath id="br"><path d="M6 13h5v5H6v-5z"/></clipPath><clipPath id="y"><use xlink:href="#reuse-24"/></clipPath><clipPath id="bt"><use xlink:href="#reuse-24"/></clipPath><clipPath id="bu"><path d="M14 12h4v5h-4v-5z"/></clipPath><clipPath id="z"><use xlink:href="#reuse-25"/></clipPath><clipPath id="bw"><use xlink:href="#reuse-25"/></clipPath><clipPath id="bx"><path d="M15 21h5v3h-5v-3z"/></clipPath><clipPath id="A"><use xlink:href="#reuse-26"/></clipPath><clipPath id="bz"><use xlink:href="#reuse-26"/></clipPath><clipPath id="bA"><path d="M14 4h3v4h-3V4z"/></clipPath><clipPath id="B"><use xlink:href="#reuse-27"/></clipPath><clipPath id="bP"><use xlink:href="#reuse-27"/></clipPath><clipPath id="bQ"><path d="M1 19h5v5H1v-5z"/></clipPath><clipPath id="C"><use xlink:href="#reuse-28"/></clipPath><clipPath id="bU"><use xlink:href="#reuse-28"/></clipPath><clipPath id="bV"><path d="M14 23h2v2h-2v-2z"/></clipPath><clipPath id="D"><use xlink:href="#reuse-29"/></clipPath><clipPath id="bX"><use xlink:href="#reuse-29"/></clipPath><clipPath id="bY"><path d="M6 17h3v2H6v-2z"/></clipPath><clipPath id="E"><use xlink:href="#reuse-30"/></clipPath><clipPath id="ca"><use xlink:href="#reuse-30"/></clipPath><clipPath id="cb"><path d="M2 11h2v2H2v-2z"/></clipPath><clipPath id="F"><use xlink:href="#reuse-31"/></clipPath><clipPath id="cd"><use xlink:href="#reuse-31"/></clipPath><clipPath id="ce"><path d="M7 8h4v2H7V8z"/></clipPath><clipPath id="G"><use xlink:href="#reuse-32"/></clipPath><clipPath id="cg"><use xlink:href="#reuse-32"/></clipPath><clipPath id="ch"><path d="M13 15h2v2h-2v-2z"/></clipPath><clipPath id="H"><use xlink:href="#reuse-33"/></clipPath><clipPath id="cj"><use xlink:href="#reuse-33"/></clipPath><clipPath id="ck"><path d="M20 16h1v3h-1v-3z"/></clipPath><clipPath id="I"><use xlink:href="#reuse-34"/></clipPath><clipPath id="cm"><use xlink:href="#reuse-34"/></clipPath><clipPath id="cn"><path d="M20 9h3v3h-3V9z"/></clipPath><clipPath id="J"><use xlink:href="#reuse-35"/></clipPath><clipPath id="cp"><use xlink:href="#reuse-35"/></clipPath><clipPath id="cq"><path d="M13 7h3v2h-3V7z"/></clipPath><clipPath id="K"><use xlink:href="#reuse-36"/></clipPath><clipPath id="cs"><use xlink:href="#reuse-36"/></clipPath><clipPath id="ct"><path d="M21 5h2v2h-2V5z"/></clipPath><mask id="N"><g clip-path="url(#a)"><use xlink:href="#reuse-0" fill-opacity=".25"/></g></mask><mask id="S"><g clip-path="url(#b)"><use xlink:href="#reuse-1" fill-opacity=".39"/></g></mask><mask id="W"><g clip-path="url(#c)"><use xlink:href="#reuse-2" fill-opacity=".43"/></g></mask><mask id="Z"><g clip-path="url(#d)"><use xlink:href="#reuse-3" fill-opacity=".43"/></g></mask><mask id="ac"><g clip-path="url(#e)"><use xlink:href="#reuse-4" fill-opacity=".43"/></g></mask><mask id="af"><g clip-path="url(#f)"><use xlink:href="#reuse-5" fill-opacity=".43"/></g></mask><mask id="ai"><g clip-path="url(#g)"><use xlink:href="#reuse-6" fill-opacity=".43"/></g></mask><mask id="al"><g clip-path="url(#h)"><use xlink:href="#reuse-7" fill-opacity=".43"/></g></mask><mask id="ao"><g clip-path="url(#i)"><use xlink:href="#reuse-8" fill-opacity=".43"/></g></mask><mask id="ar"><g clip-path="url(#j)"><use xlink:href="#reuse-9" fill-opacity=".43"/></g></mask><mask id="au"><g clip-path="url(#k)"><use xlink:href="#reuse-10" fill-opacity=".43"/></g></mask><mask id="aD"><g clip-path="url(#l)"><use xlink:href="#reuse-11" fill-opacity=".23"/></g></mask><mask id="aI"><g clip-path="url(#m)"><use xlink:href="#reuse-12" fill-opacity=".41"/></g></mask><mask id="aL"><g clip-path="url(#n)"><use xlink:href="#reuse-13" fill-opacity=".41"/></g></mask><mask id="aO"><g clip-path="url(#o)"><use xlink:href="#reuse-14" fill-opacity=".41"/></g></mask><mask id="aR"><g clip-path="url(#p)"><use xlink:href="#reuse-15" fill-opacity=".41"/></g></mask><mask id="aU"><g clip-path="url(#q)"><use xlink:href="#reuse-16" fill-opacity=".41"/></g></mask><mask id="aX"><g clip-path="url(#r)"><use xlink:href="#reuse-17" fill-opacity=".41"/></g></mask><mask id="ba"><g clip-path="url(#s)"><use xlink:href="#reuse-18" fill-opacity=".41"/></g></mask><mask id="bd"><g clip-path="url(#t)"><use xlink:href="#reuse-19" fill-opacity=".23"/></g></mask><mask id="bg"><g clip-path="url(#u)"><use xlink:href="#reuse-20" fill-opacity=".23"/></g></mask><mask id="bj"><g clip-path="url(#v)"><use xlink:href="#reuse-21" fill-opacity=".23"/></g></mask><mask id="bm"><g clip-path="url(#w)"><use xlink:href="#reuse-22" fill-opacity=".23"/></g></mask><mask id="bp"><g clip-path="url(#x)"><use xlink:href="#reuse-23" fill-opacity=".23"/></g></mask><mask id="bs"><g clip-path="url(#y)"><use xlink:href="#reuse-24" fill-opacity=".23"/></g></mask><mask id="bv"><g clip-path="url(#z)"><use xlink:href="#reuse-25" fill-opacity=".23"/></g></mask><mask id="by"><g clip-path="url(#A)"><use xlink:href="#reuse-26" fill-opacity=".23"/></g></mask><mask id="bO"><g clip-path="url(#B)"><use xlink:href="#reuse-27" fill-opacity=".12"/></g></mask><mask id="bT"><g clip-path="url(#C)"><use xlink:href="#reuse-28" fill-opacity=".28"/></g></mask><mask id="bW"><g clip-path="url(#D)"><use xlink:href="#reuse-29" fill-opacity=".28"/></g></mask><mask id="bZ"><g clip-path="url(#E)"><use xlink:href="#reuse-30" fill-opacity=".28"/></g></mask><mask id="cc"><g clip-path="url(#F)"><use xlink:href="#reuse-31" fill-opacity=".28"/></g></mask><mask id="cf"><g clip-path="url(#G)"><use xlink:href="#reuse-32" fill-opacity=".28"/></g></mask><mask id="ci"><g clip-path="url(#H)"><use xlink:href="#reuse-33" fill-opacity=".28"/></g></mask><mask id="cl"><g clip-path="url(#I)"><use xlink:href="#reuse-34" fill-opacity=".28"/></g></mask><mask id="co"><g clip-path="url(#J)"><use xlink:href="#reuse-35" fill-opacity=".28"/></g></mask><mask id="cr"><g clip-path="url(#K)"><use xlink:href="#reuse-36" fill-opacity=".28"/></g></mask><radialGradient id="M" cx="2027.8" cy="-17624" r="48.86" gradientTransform="matrix(-.0136 -.05888 -.05888 .0136 -989.52 381.2)" gradientUnits="userSpaceOnUse"><stop offset="0" stop-color="#ffe8bd"/><stop offset="1" stop-color="#8c7649"/></radialGradient><radialGradient id="Q" cx="2045.2" cy="-17956" r="48.63" gradientTransform="scale(-.06048 .06048) rotate(-77 12368.36 -7289.4)" gradientUnits="userSpaceOnUse"><stop offset="0" stop-color="#ccb486"/><stop offset="1" stop-color="#c9ae76"/></radialGradient><radialGradient id="R" cx="8084.3" cy="-19417" r="136.51" gradientTransform="scale(-.06048 .06048) rotate(-44.3 28129.43 855.6)" gradientUnits="userSpaceOnUse"><stop offset="0" stop-color="#ffeecf"/><stop offset="1" stop-color="#fae0aa"/></radialGradient><radialGradient id="V" cx="8256.1" cy="-19670" r="121.51" gradientTransform="scale(-.06048 .06048) rotate(-44.32 28520.22 942.44)" gradientUnits="userSpaceOnUse"><stop offset="0" stop-color="#ccb486"/><stop offset="1" stop-color="#c9ae76"/></radialGradient><radialGradient id="ax" cx="8138.2" cy="-19417" r="12.54" gradientTransform="scale(-.06048 .06048) rotate(-44.3 28129.6 866.8)" gradientUnits="userSpaceOnUse"><stop offset="0" stop-color="#ffeecf"/><stop offset="1" stop-color="#fae0aa"/></radialGradient><radialGradient id="ay" cx="8151.5" cy="-19421" r="8.14" gradientTransform="scale(-.06048 .06048) rotate(-44.3 28138.92 861.36)" gradientUnits="userSpaceOnUse"><stop offset="0" stop-color="#ffeecf"/><stop offset="1" stop-color="#fae0aa"/></radialGradient><radialGradient id="az" cx="8134.8" cy="-19430" r="10.11" gradientTransform="scale(-.06048 .06048) rotate(-44.3 28163.9 863.95)" gradientUnits="userSpaceOnUse"><stop offset="0" stop-color="#ffeecf"/><stop offset="1" stop-color="#fae0aa"/></radialGradient><radialGradient id="aA" cx="8155.7" cy="-19419" r="7.62" gradientTransform="matrix(-.0432 -.04224 -.04224 .0432 -447.9 1202.9)" gradientUnits="userSpaceOnUse"><stop offset="0" stop-color="#ffeecf"/><stop offset="1" stop-color="#fae0aa"/></radialGradient><radialGradient id="aB" cx="8121" cy="-19414" r="5.51" gradientTransform="matrix(-.0432 -.04224 -.04224 .0432 -448.1 1202.1)" gradientUnits="userSpaceOnUse"><stop offset="0" stop-color="#ffeecf"/><stop offset="1" stop-color="#fae0aa"/></radialGradient><radialGradient id="aC" cx="-3108" cy="-6936.4" r="313.32" gradientTransform="matrix(.0472 -.03776 -.03776 -.0472 -106.97 -428.63)" gradientUnits="userSpaceOnUse"><stop offset="0" stop-color="#ffed9e"/><stop offset="1" stop-color="#dec560"/></radialGradient><radialGradient id="aG" cx="-3106.5" cy="-9455.5" r="234.23" gradientTransform="matrix(.03784 -.04712 -.04712 -.03784 -321.38 -489.4)" gradientUnits="userSpaceOnUse"><stop offset="0" stop-color="#f5ca67"/><stop offset="1" stop-color="#a1781b"/></radialGradient><radialGradient id="aH" cx="-3107.2" cy="-9462.4" r="227.39" gradientTransform="scale(.06043 -.06043) rotate(51.23 -11118.62 -1503.1)" gradientUnits="userSpaceOnUse"><stop offset="0" stop-color="#f7d374"/><stop offset="1" stop-color="#c29a40"/></radialGradient><radialGradient id="bJ" cx="-3048.9" cy="-9882.9" r="306.11" gradientTransform="matrix(.03568 -.0488 -.0488 -.03568 -363.22 -483.07)" gradientUnits="userSpaceOnUse"><stop offset="0" stop-color="#f7d374"/><stop offset="1" stop-color="#c29a40"/></radialGradient><radialGradient id="bK" cx="-3045.8" cy="-9880.3" r="306.11" gradientTransform="matrix(.03568 -.0488 -.0488 -.03568 -362.97 -482.88)" gradientUnits="userSpaceOnUse"><stop offset="0" stop-color="#f7d374"/><stop offset="1" stop-color="#c29a40"/></radialGradient><radialGradient id="bL" cx="-3037.3" cy="-9878.6" r="306.11" gradientTransform="matrix(.03568 -.0488 -.0488 -.03568 -362.8 -482.76)" gradientUnits="userSpaceOnUse"><stop offset="0" stop-color="#f7d374"/><stop offset="1" stop-color="#c29a40"/></radialGradient><radialGradient id="bM" cx="-3030" cy="-9867.1" r="306.11" gradientTransform="matrix(.03568 -.0488 -.0488 -.03568 -361.67 -481.93)" gradientUnits="userSpaceOnUse"><stop offset="0" stop-color="#f7d374"/><stop offset="1" stop-color="#c29a40"/></radialGradient><radialGradient id="bN" cx="-3048.8" cy="-9883" r="306.1" gradientTransform="matrix(.03568 -.0488 -.0488 -.03568 -363.22 -483.07)" gradientUnits="userSpaceOnUse"><stop offset="0" stop-color="#f7d374"/><stop offset="1" stop-color="#c29a40"/></radialGradient><linearGradient id="L" x1="15862" x2="15980" y1="-7.78" y2="-7.78" gradientTransform="rotate(87.88 480.67 -481.15) scale(.06044)" gradientUnits="userSpaceOnUse"><stop offset="0" stop-color="#f7d988"/><stop offset="1" stop-color="#bda56e"/></linearGradient><linearGradient id="bB" x1="-3081.1" x2="-2991.7" y1="-7828.6" y2="-7828.6" gradientTransform="scale(.06047) rotate(-42.64 8718.02 -7958)" gradientUnits="userSpaceOnUse"><stop offset="0" stop-color="#f5ca67"/><stop offset="1" stop-color="#a1781b"/></linearGradient><linearGradient id="bC" x1="-2193.5" x2="-2115.6" y1="-12236" y2="-12236" gradientTransform="matrix(.02376 -.0556 .0556 .02376 754.23 180.24)" gradientUnits="userSpaceOnUse"><stop offset="0" stop-color="#f5ca67"/><stop offset="1" stop-color="#a1781b"/></linearGradient><linearGradient id="bD" x1="-1994.8" x2="-1939.6" y1="-12579" y2="-12579" gradientTransform="rotate(-68.57 513.06 -481.31) scale(.06042)" gradientUnits="userSpaceOnUse"><stop offset="0" stop-color="#f5ca67"/><stop offset="1" stop-color="#a1781b"/></linearGradient><linearGradient id="bE" x1="339.29" x2="396.52" y1="-160.93" y2="-160.93" gradientTransform="translate(0 25.77) scale(.06048)" gradientUnits="userSpaceOnUse"><stop offset="0" stop-color="#f5ca67"/><stop offset="1" stop-color="#a1781b"/></linearGradient><linearGradient id="bF" x1="1527.2" x2="1597.4" y1="-17388" y2="-17388" gradientTransform="rotate(-99.21 505.1 -481.04) scale(.06046)" gradientUnits="userSpaceOnUse"><stop offset="0" stop-color="#f5ca67"/><stop offset="1" stop-color="#a1781b"/></linearGradient><linearGradient id="bG" x1="227.61" x2="282.99" y1="-191.05" y2="-191.05" gradientTransform="translate(0 25.77) scale(.06048)" gradientUnits="userSpaceOnUse"><stop offset="0" stop-color="#f5ca67"/><stop offset="1" stop-color="#a1781b"/></linearGradient><linearGradient id="bH" x1="247.34" x2="315.07" y1="-49.59" y2="-49.59" gradientTransform="translate(0 25.77) scale(.06048)" gradientUnits="userSpaceOnUse"><stop offset="0" stop-color="#f5ca67"/><stop offset="1" stop-color="#a1781b"/></linearGradient><linearGradient id="bI" x1="229.96" x2="262.84" y1="-324.16" y2="-324.16" gradientTransform="translate(0 25.77) scale(.06048)" gradientUnits="userSpaceOnUse"><stop offset="0" stop-color="#f5ca67"/><stop offset="1" stop-color="#a1781b"/></linearGradient><linearGradient id="bR" x1="7083.7" x2="7295.9" y1="-19583" y2="-19583" gradientTransform="matrix(-.03864 -.04648 .04648 -.03864 1189.9 -404.55)" gradientUnits="userSpaceOnUse"><stop offset="0" stop-color="#f5ca67"/><stop offset="1" stop-color="#a1781b"/></linearGradient><linearGradient id="bS" x1="2122.4" x2="2361.6" y1="-17933" y2="-17933" gradientTransform="matrix(-.01392 -.0588 .0588 -.01392 1088.7 -101.23)" gradientUnits="userSpaceOnUse"><stop offset="0" stop-color="#f7d985"/><stop offset="1" stop-color="#c29a40"/></linearGradient><linearGradient id="cu" x1="19449" x2="19468" y1="-8155.7" y2="-8155.7" gradientTransform="matrix(-.04192 .04352 -.04352 -.04192 480.9 -1166.9)" gradientUnits="userSpaceOnUse"><stop offset="0" stop-color="#cfb572"/><stop offset="1" stop-color="#ab9563"/></linearGradient><linearGradient id="cv" x1="19433" x2="19450" y1="-8123.8" y2="-8123.8" gradientTransform="matrix(-.04192 .04352 -.04352 -.04192 480.83 -1166.9)" gradientUnits="userSpaceOnUse"><stop offset="0" stop-color="#cfb572"/><stop offset="1" stop-color="#ab9563"/></linearGradient><linearGradient id="cw" x1="19423" x2="19439" y1="-8086.6" y2="-8086.6" gradientTransform="matrix(-.04192 .04352 -.04352 -.04192 481.29 -1166.9)" gradientUnits="userSpaceOnUse"><stop offset="0" stop-color="#cfb572"/><stop offset="1" stop-color="#ab9563"/></linearGradient><linearGradient id="cx" x1="19402" x2="19416" y1="-8077.5" y2="-8077.5" gradientTransform="matrix(-.04192 .04352 -.04352 -.04192 480.81 -1166.9)" gradientUnits="userSpaceOnUse"><stop offset="0" stop-color="#cfb572"/><stop offset="1" stop-color="#ab9563"/></linearGradient><linearGradient id="cy" x1="19394" x2="19407" y1="-8126.7" y2="-8126.7" gradientTransform="matrix(-.04192 .0436 -.0436 -.04192 480.65 -1166.9)" gradientUnits="userSpaceOnUse"><stop offset="0" stop-color="#cfb572"/><stop offset="1" stop-color="#ab9563"/></linearGradient><linearGradient id="cz" x1="19400" x2="19415" y1="-8168.2" y2="-8168.2" gradientTransform="matrix(-.04192 .04352 -.04352 -.04192 481.03 -1166.9)" gradientUnits="userSpaceOnUse"><stop offset="0" stop-color="#cfb572"/><stop offset="1" stop-color="#ab9563"/></linearGradient></defs><path fill="url(#L)" fill-rule="evenodd" d="M19.95 21.82c.74.07 1.27.07 1.59 0 .2-.04.43-.15.68-.33.19-.13.3-.25.34-.36l.08-.55c.04-.38.02-1-.04-1.86-.08-1.08-.23-2-.44-2.75-.3-.18-.6-.38-.92-.59a6.66 6.66 0 0 1-1.06-.76c-.08-.12-.86-.2-2.34-.26-1.47-.05-2.4-.02-2.76.08-.33.1-.62.64-.86 1.65-.1.38-.16.76-.2 1.12a1.9 1.9 0 0 0 0 .69c.04.1.29.35.76.76.49.42 1.04.85 1.65 1.3 1.63 1.17 2.8 1.8 3.52 1.86z" transform="matrix(1.25 0 0 -1.25 0 32.22)"/><path fill="#fff2b8" fill-rule="evenodd" d="m26.78 5.05-.92-.18.54-.04.21.01.43.07a3.42 3.42 0 0 1 1.14.54c.08.06.15.2.23.42.05.12.08.22.1.33l.15 1.43c-.07.16-.2.34-.36.54-.35.4-.77.74-1.26.98-.5.25-1.26.81-2.3 1.7L23.3 12.1c-1.16.4-1.78.58-1.88.56-.08-.02-.11-.08-.08-.18.04-.14.17-.4.41-.82.23-.4.73-.91 1.52-1.57.63-.52 1.17-.93 1.62-1.2l1.17-.67c.47-.26.76-.45.86-.55.1-.1.2-.29.33-.56l.33-.73c.14-.25.21-.42.23-.51a.77.77 0 0 0-.04-.4c-.05-.14-.38-.28-1-.42z"/><path fill="url(#M)" fill-rule="evenodd" d="M21.46 22.12v-.08l.05-.02a1 1 0 0 0 .1-.12c.04-.06.01-.11-.09-.15l-.15-.03.08-.06c.07-.04.12-.08.16-.12.05-.04.05-.12-.01-.24a.72.72 0 0 0-.28-.3l.02.07a2.9 2.9 0 0 0-.24-.28c-.2-.18-.37-.29-.53-.31a.53.53 0 0 0-.4.08l-.24.2c-.06.04-.1.14-.14.29l-.04.2.07.29c.05.2.11.37.18.49.09.12.18.2.29.23a1.33 1.33 0 0 0 .57-.05l.05-.05.11.06c.1.03.19.03.27.01.09-.02.14-.05.17-.11z" transform="matrix(1.25 0 0 -1.25 0 32.22)"/><g mask="url(#N)" transform="matrix(1.25 0 0 -1.25 0 32.22)"><g clip-path="url(#O)"><g clip-path="url(#P)" transform="translate(0 -.23)"><path fill="url(#Q)" fill-rule="evenodd" d="m20.96 21.75.03.06.1-.07c.07-.04.11-.03.13.02l.07.17.09-.05.15-.12c.06-.04.06-.12 0-.24a.69.69 0 0 0-.28-.3l.01.07a2.4 2.4 0 0 0-.24-.28c-.2-.19-.37-.3-.53-.32a.54.54 0 0 0-.4.08c-.1.1-.18.17-.23.2-.06.05-.11.14-.15.3l-.03.2.06.28c.05.21.12.38.19.5l.07.08.54.15c.05 0 .1 0 .15-.02-.06-.13-.1-.26-.13-.38-.03-.14-.04-.23 0-.27.02-.04.06-.05.11-.04.02 0 .05 0 .07.02v-.07c.01-.04.04-.06.1-.05a.2.2 0 0 1 .12.08z"/></g></g></g><path fill="url(#R)" fill-rule="evenodd" d="M21.95 21.88a.8.8 0 0 0 .33.12l.1-.02.15.1c.11.07.2.07.28.01.07-.05.1-.1.06-.16a.11.11 0 0 0-.06-.05l.16.01c.12 0 .18-.05.2-.13s0-.14-.05-.16l-.07-.02.18-.1c.11-.09.16-.19.13-.3-.02-.1-.08-.15-.19-.15l-.14.04.2-.23c.11-.15.12-.24.03-.26-.08-.03-.21.07-.39.3l-.22.33-.1.21-.01-.04c-.03-.04-.08-.06-.14-.07l-.16-.04.02-.06a.2.2 0 0 0-.02-.14l-.06-.12-.4-1a1.4 1.4 0 0 0-.4-.43 5 5 0 0 0-.63-.43c-.82-.46-1.3-.74-1.44-.83-.1-.06-.29-.2-.6-.45l-.5-.4-.13-.09c-.05-.01-.07 0-.07.05.11 1.26.2 2 .25 2.2.04.14.22.35.58.64l.5.39.48.59.27.08c.2.04.32 0 .38-.08l.14-.22.13.06c.1.03.16 0 .2-.06l.1-.15a.72.72 0 0 0-.08.21c-.04.15 0 .24.1.28l.25.07.07.08c.06.04.14.08.23.08l.22.02a.14.14 0 0 0-.06.1c-.01.07.05.15.17.22z" transform="matrix(1.25 0 0 -1.25 0 32.22)"/><g mask="url(#S)" transform="matrix(1.25 0 0 -1.25 0 32.22)"><g clip-path="url(#T)"><g clip-path="url(#U)" transform="translate(0 -.23)"><path fill="url(#V)" fill-rule="evenodd" d="M23.18 21.04c.12-.15.13-.24.04-.27-.1-.02-.22.08-.4.3l-.22.34-.1.21-.01-.04c-.02-.04-.07-.06-.14-.08l-.16-.03.02-.06a.2.2 0 0 0-.02-.14l-.06-.12-.4-1a1.43 1.43 0 0 0-.4-.43 5 5 0 0 0-.63-.44l-.78-.44c-.36-.2-.58-.33-.66-.39-.15-.09-.51-.37-1.1-.84l-.13-.09c-.05-.02-.07 0-.07.05.12 1.26.2 2 .25 2.2.04.13.23.34.57.63l.52.4.47.59.26.08c.19.03.31.01.38-.07a.65.65 0 0 0 .09-.25.33.33 0 0 0-.02-.2l-.08-.15.15-.02c.1-.03.14-.1.13-.18l-.06-.3h.13c.09-.02.15-.06.18-.12l.08-.13.11.06.16.04.08-.02c0 .09.03.18.07.27.02.06.05.08.1.07l.05-.05-.1.15c-.04.12-.05.2 0 .27.05.06.1.06.14.02a.19.19 0 0 0 .04-.13h.02c.02.04.04.04.06.03l.06-.04-.01.1c0 .08.01.16.05.24.03.07.06.1.09.1 0 0 .02-.01.02-.03v.09c0 .08.01.17.04.26.04.1.1.18.17.25a.5.5 0 0 0 .11.07l.38-.02.16-.08c.1-.05.14-.1.1-.14l-.07-.08.1.01c.05 0 .06-.03.02-.08-.05-.06-.05-.13 0-.22.04-.09.11-.14.22-.15z"/></g></g></g><g mask="url(#W)" transform="matrix(1.25 0 0 -1.25 0 32.22)"><g clip-path="url(#X)"><g clip-path="url(#Y)" transform="translate(0 -.23)"><path fill="#fff" fill-rule="evenodd" d="M21.75 21.76c.06 0 .1 0 .13-.02 0-.04-.04-.08-.1-.1-.1-.03-.15-.08-.12-.14.02-.03.02-.07 0-.1l-.06-.13c-.03-.05-.06-.06-.12-.02l-.07.07c0-.06-.07-.13-.18-.2-.07-.05-.11-.04-.12.04l.01.14a.1.1 0 0 0-.03.05.23.23 0 0 0 0 .14c.01.05.06.08.14.07a.4.4 0 0 0 .12-.01c.05.02.1.06.16.11.07.07.15.1.24.1z"/></g></g></g><g mask="url(#Z)" transform="matrix(1.25 0 0 -1.25 0 32.22)"><g clip-path="url(#aa)"><g clip-path="url(#ab)" transform="translate(0 -.23)"><path fill="#fff" fill-rule="evenodd" d="M22.34 22.16c.04 0 .08-.01.13-.04l.1-.06c.02 0 .02-.03.01-.04l-.06-.07c-.05-.04-.12-.02-.22.04a.53.53 0 0 0-.25-.03c-.08 0-.08.04.02.1.1.07.2.1.27.1z"/></g></g></g><g mask="url(#ac)" transform="matrix(1.25 0 0 -1.25 0 32.22)"><g clip-path="url(#ad)"><g clip-path="url(#ae)" transform="translate(0 -.23)"><path fill="#fff" fill-rule="evenodd" d="M22.68 22.24c.1 0 .16-.02.15-.06s-.05-.07-.12-.08c-.06 0-.08.02-.07.07l.04.07z"/></g></g></g><g mask="url(#af)" transform="matrix(1.25 0 0 -1.25 0 32.22)"><g clip-path="url(#ag)"><g clip-path="url(#ah)" transform="translate(0 -.23)"><path fill="#fff" fill-rule="evenodd" d="M23 22c.1-.03.12-.06.08-.1-.05-.04-.12-.05-.2-.03-.1.01-.1.04-.06.08.05.05.11.07.19.04z"/></g></g></g><g mask="url(#ai)" transform="matrix(1.25 0 0 -1.25 0 32.22)"><g clip-path="url(#aj)"><g clip-path="url(#ak)" transform="translate(0 -.23)"><path fill="#fff" fill-rule="evenodd" d="M23.13 21.72c.01 0 .03 0 .04-.03a.61.61 0 0 1 .08-.1c.04-.04.06-.08.04-.11-.02-.03-.04-.05-.08-.07-.05 0-.07.04-.07.16a.35.35 0 0 0-.1.07c-.04.03-.05.05-.03.06.01.02.05.02.12.02z"/></g></g></g><g mask="url(#al)" transform="matrix(1.25 0 0 -1.25 0 32.22)"><g clip-path="url(#am)"><g clip-path="url(#an)" transform="translate(0 -.23)"><path fill="#fff" fill-rule="evenodd" d="M22.1 21.84c.04 0 .06-.02.05-.06 0-.02-.04-.04-.09-.05-.05-.01-.07 0-.06.05.01.05.05.06.1.06z"/></g></g></g><g mask="url(#ao)" transform="matrix(1.25 0 0 -1.25 0 32.22)"><g clip-path="url(#ap)"><g clip-path="url(#aq)" transform="translate(0 -.23)"><path fill="#fff" fill-rule="evenodd" d="M21.5 21.15c.05.02.1.01.14-.01.04-.03.05-.05.04-.08l-.05-.04h-.08c-.01 0-.03 0-.06-.03a.2.2 0 0 0-.1-.04c-.04 0-.04.03-.01.09s.07.1.11.1z"/></g></g></g><g mask="url(#ar)" transform="matrix(1.25 0 0 -1.25 0 32.22)"><g clip-path="url(#as)"><g clip-path="url(#at)" transform="translate(0 -.23)"><path fill="#fff" fill-rule="evenodd" d="M20.92 21.08a.27.27 0 0 0 .02-.11l.06-.03c.03-.01.04-.03.03-.06 0-.02-.02-.05-.06-.1-.03-.03-.06-.03-.1.01l-.03.08h-.18c-.06.02-.08.07-.05.15.04.08.09.12.15.14.08.01.13-.01.16-.08z"/></g></g></g><g mask="url(#au)" transform="matrix(1.25 0 0 -1.25 0 32.22)"><g clip-path="url(#av)"><g clip-path="url(#aw)" transform="translate(0 -.23)"><path fill="#fff" fill-rule="evenodd" d="M21.34 20.69v-.2c0-.06-.03-.08-.07-.09l-.05.02a.27.27 0 0 0-.1-.1c-.03-.03-.07-.03-.12 0a.16.16 0 0 0-.08.12c-.01.04.03.06.1.06l.12-.01v.08c.02.05.04.1.09.12.06.04.1.04.11 0z"/></g></g></g><path fill="url(#ax)" fill-rule="evenodd" d="M20.83 19.46c.09-.05.1-.1.02-.14l-.28-.13c-.09-.03-.16-.03-.21 0l-.06.08-.23.03c-.12.01-.15.07-.1.16.06.1.14.15.25.15.06 0 .15-.03.26-.09l.1.02c.1 0 .17-.04.25-.08z" transform="matrix(1.25 0 0 -1.25 0 32.22)"/><path fill="url(#ay)" fill-rule="evenodd" d="M19.95 19.18c.13.02.18-.02.15-.12-.03-.1-.11-.15-.24-.16-.11-.02-.14.02-.1.12.05.1.12.15.19.16z" transform="matrix(1.25 0 0 -1.25 0 32.22)"/><path fill="url(#az)" fill-rule="evenodd" d="M20.43 20.45c.13.01.16-.04.13-.16-.05-.12-.12-.18-.23-.2-.1-.01-.13.04-.1.16s.11.18.2.2z" transform="matrix(1.25 0 0 -1.25 0 32.22)"/><path fill="url(#aA)" fill-rule="evenodd" d="M19.71 18.73c.1.05.14.02.13-.08-.02-.1-.06-.15-.15-.17-.07-.01-.1.02-.09.1a.2.2 0 0 0 .11.15z" transform="matrix(1.25 0 0 -1.25 0 32.22)"/><path fill="url(#aB)" fill-rule="evenodd" d="M21.35 19.74a.24.24 0 0 0-.16-.1c-.08-.02-.1 0-.05.08s.11.1.2.1c.04 0 .05-.02.01-.08z" transform="matrix(1.25 0 0 -1.25 0 32.22)"/><path fill="url(#aC)" fill-rule="evenodd" d="M20.8 22.41a10.33 10.33 0 0 0-1.74-4.1c-.55-.76-.98-1.3-1.28-1.63l.25.21c.5.43.9.8 1.24 1.1.3.26.72.53 1.23.8.59.29.94.47 1.04.55.21.15.36.3.43.48l.34.73c.07.12.12.28.16.47l.07.39a12.8 12.8 0 0 0 2.21-13.53 12.75 12.75 0 0 0-6.86-6.86 12.72 12.72 0 0 0-5.01-1 12.71 12.71 0 0 0-9.11 3.76 12.86 12.86 0 0 0 0 18.22 12.78 12.78 0 0 0 9.11 3.77 12.74 12.74 0 0 0 8-2.79l-.08-.57z" transform="matrix(1.25 0 0 -1.25 0 32.22)"/><g mask="url(#aD)" transform="matrix(1.25 0 0 -1.25 0 32.22)"><g clip-path="url(#aE)"><g clip-path="url(#aF)" transform="translate(0 -.23)"><path fill="#754517" fill-rule="evenodd" d="M4.78 11.52a4.15 4.15 0 0 0 1.24-1.8c.42-1.18.48-2.05.21-2.62-.23-.46-.66-.67-1.29-.63-.57.04-1.12.32-1.65.83-.47.45-.77.92-.92 1.41a3.82 3.82 0 0 0-.11 1.8c.1.53.28.9.55 1.12.62.48 1.28.45 1.97-.1z"/></g></g></g><path fill="url(#aG)" fill-rule="evenodd" d="M5.4 10.1c.2-.4.33-.83.4-1.27.11-.6.1-1.11-.03-1.51-.15-.5-.49-.82-1-.96-.54-.15-1.06.05-1.57.58a3.78 3.78 0 0 0-.98 3.29c.1.53.28.9.56 1.12.33.26.66.36 1 .3.32-.04.63-.21.92-.5.27-.27.5-.62.7-1.04z" transform="matrix(1.25 0 0 -1.25 0 32.22)"/><path fill="#ffe292" fill-rule="evenodd" d="M6.6 20.12c.2.5.32.92.36 1.28.1.84.12 1.4.08 1.68-.11.63-.46 1.02-1.07 1.19-.68.18-1.33-.07-1.97-.73a4.55 4.55 0 0 1-1.08-1.86 4.97 4.97 0 0 1-.15-2.28c.12-.69.35-1.17.7-1.43.4-.31.81-.39 1.25-.22.36.15.73.46 1.08.93.3.41.57.9.8 1.44z"/><path fill="url(#aH)" fill-rule="evenodd" d="M5.2 9.6c.15-.37.24-.67.26-.9l.09-.68c.03-.28.04-.51.02-.7-.05-.5-.32-.83-.8-.96-.54-.15-1.06.05-1.57.58-.41.44-.7.93-.86 1.49-.19.62-.23 1.2-.12 1.76.1.5.29.87.56 1.08.6.47 1.22.28 1.83-.57.23-.32.43-.68.6-1.1z" transform="matrix(1.25 0 0 -1.25 0 32.22)"/><path fill="#ab8e4b" fill-rule="evenodd" d="M3.95 18.33c-.04.04-.08.04-.13 0-.04-.05-.04-.09 0-.13a.28.28 0 0 1 .13-.06l.13-.04c.05-.03.09-.01.12.04s.02.09-.03.1c-.01.01-.05.03-.12.04a.25.25 0 0 0-.1.05zM4.52 18.28c-.06 0-.09-.02-.09-.08s.03-.1.09-.1.1.01.16.04c.04.02.09.04.15.09.05.02.07.06.04.1-.04.06-.07.08-.12.05a1.71 1.71 0 0 0-.12-.06.18.18 0 0 0-.11-.04zM5.06 18.55c-.04-.04-.04-.08 0-.12.04-.04.08-.05.13 0 .08.06.16.14.21.23.03.05.02.1-.03.12-.05.03-.1.02-.12-.03a.95.95 0 0 0-.19-.2zM5.5 19.05c-.04-.05-.04-.09 0-.13.05-.04.09-.04.12 0 .09.08.16.2.23.36.01.02 0 .05-.01.07a.09.09 0 0 1-.05.04c-.05.01-.1 0-.12-.06a.88.88 0 0 0-.17-.28zM6.2 19.91c.02.06 0 .09-.06.1-.06.01-.1 0-.11-.06a.86.86 0 0 0-.16-.28c-.01-.02-.01-.05 0-.07 0-.02.01-.04.03-.05.05-.03.1-.02.13.03.09.13.14.24.17.33zM6.48 20.6c.02.05 0 .09-.06.1-.05.03-.1 0-.1-.05a1.4 1.4 0 0 0-.16-.3c-.03-.06-.02-.1.03-.13s.1-.02.12.03c.08.1.13.22.17.35zM6.4 21.02c-.03-.05-.02-.1.03-.12.06-.03.1-.01.12.04.08.13.12.3.13.47 0 .05-.02.08-.08.08s-.1-.04-.1-.1a.86.86 0 0 0-.1-.37zM6.55 21.79c0-.06.03-.1.09-.1s.09.04.1.1l.01.2.02.21c0 .06-.03.09-.09.09s-.09-.03-.09-.09c0-.05 0-.12-.02-.2l-.02-.21zM6.6 22.7c0-.07.04-.1.1-.1.05 0 .08.03.09.1l.01.18v.18c0 .06-.04.09-.1.09s-.08-.03-.08-.09v-.18a2.6 2.6 0 0 1-.01-.19zM6.55 23.47c0-.06.04-.09.1-.09.06 0 .08.03.08.1a.6.6 0 0 1-.12.32c-.03.05-.08.06-.12.02-.05-.02-.06-.06-.03-.1.06-.1.1-.18.1-.25zM5.97 24c.04-.03.09-.01.12.04s.02.09-.04.11a.59.59 0 0 1-.25.05c-.06 0-.09-.03-.09-.09s.03-.1.09-.1c.07.01.13 0 .17-.02zM5.2 23.94c.04.02.05.06.02.12-.03.05-.06.06-.12.03l-.2-.1c-.04-.04-.05-.08-.02-.13.03-.06.07-.07.11-.03l.2.11zM4.55 23.58c.04.03.05.07.02.13-.02.04-.07.05-.12.03l-.17-.13-.16-.15c-.05-.04-.06-.08-.03-.13s.06-.06.11-.02l.17.14.18.13zM3.88 22.85c.03.05.02.08-.03.1-.05.04-.1.03-.13-.02-.1-.13-.18-.25-.2-.35-.02-.05 0-.09.05-.1.06-.02.1 0 .12.05.03.1.1.2.19.32zM3.4 21.99c.02.06 0 .1-.06.1-.05.02-.1 0-.11-.05a1.46 1.46 0 0 1-.1-.3c0-.06.02-.1.08-.1.06-.02.1 0 .1.05.01.08.04.18.09.3zM2.99 21.15c0-.04 0-.1-.02-.18a.98.98 0 0 1-.02-.17c0-.06.03-.1.1-.1.05 0 .08.04.08.1l.02.17.02.18c0 .06-.03.09-.09.09s-.09-.03-.1-.09zM3 20.2c-.06 0-.08-.02-.08-.08v-.32c0-.05.02-.08.09-.08.06 0 .09.03.09.08v.32c0 .06-.03.09-.1.09zM3.05 19.37c-.06-.02-.07-.07-.05-.12l.07-.22c0-.06.04-.07.1-.06.06.01.08.05.07.1l-.09.27c-.02.05-.05.06-.1.03zM3.38 18.5c.03-.05.07-.06.12-.02.05.03.06.06.03.11a.72.72 0 0 1-.15.18c-.05.04-.09.03-.12-.02s-.02-.1.03-.13a.49.49 0 0 0 .09-.12z"/><g mask="url(#aI)" transform="matrix(1.25 0 0 -1.25 0 32.22)"><g clip-path="url(#aJ)"><g clip-path="url(#aK)" transform="translate(0 -.23)"><path fill="#b39853" fill-rule="evenodd" d="M19.09 18.92c-.05-.1-.1-.2-.15-.35a1 1 0 0 0-.14-.25l-.16-.24c-.04-.08-.13-.14-.27-.17a.89.89 0 0 0-.21-.04c.03 0 .11.06.25.16.08.07.12.16.12.3l-.04.17a.3.3 0 0 1 .25.05c.08.05.2.17.35.37z"/></g></g></g><g mask="url(#aL)" transform="matrix(1.25 0 0 -1.25 0 32.22)"><g clip-path="url(#aM)"><g clip-path="url(#aN)" transform="translate(0 -.23)"><path fill="#b39853" fill-rule="evenodd" d="M19.9 20.94c.03-.02.09 0 .18.09l.12.13a3.56 3.56 0 0 1-.15-.46 1.27 1.27 0 0 0-.1-.27c-.03-.07-.1-.12-.2-.15a.75.75 0 0 0-.15-.02l.08.02c.04.01.09.05.14.11.05.07.1.15.12.23.02.07.02.14 0 .22l-.05.1z"/></g></g></g><g mask="url(#aO)" transform="matrix(1.25 0 0 -1.25 0 32.22)"><g clip-path="url(#aP)"><g clip-path="url(#aQ)" transform="translate(0 -.23)"><path fill="#b39853" fill-rule="evenodd" d="m20.6 22.82.11.06a1.18 1.18 0 0 0-.24-.79l.03.19c0 .05-.03.08-.09.1h-.09c.08.02.16.06.23.14.05.04.08.1.07.19 0 .04 0 .08-.02.11z"/></g></g></g><g mask="url(#aR)" transform="matrix(1.25 0 0 -1.25 0 32.22)"><g clip-path="url(#aS)"><g clip-path="url(#aT)" transform="translate(0 -.23)"><path fill="#b39853" fill-rule="evenodd" d="M19.33 17.36c.1-.08.15-.15.15-.23 0-.06-.04-.12-.1-.19-.08-.08-.15-.12-.23-.12-.12 0-.2 0-.27.03l.1.01c.08.02.15.06.2.1.06.06.1.14.13.25l.02.15z"/></g></g></g><g mask="url(#aU)" transform="matrix(1.25 0 0 -1.25 0 32.22)"><g clip-path="url(#aV)"><g clip-path="url(#aW)" transform="translate(0 -.23)"><path fill="#b39853" fill-rule="evenodd" d="M21.88 19.24a.4.4 0 0 0 .05-.22c0-.1-.03-.17-.1-.2s-.13-.04-.2-.03a.4.4 0 0 0-.07.03c.06 0 .14.05.23.12.05.05.09.11.1.2a.3.3 0 0 1-.01.1z"/></g></g></g><g mask="url(#aX)" transform="matrix(1.25 0 0 -1.25 0 32.22)"><g clip-path="url(#aY)"><g clip-path="url(#aZ)" transform="translate(0 -.23)"><path fill="#b39853" fill-rule="evenodd" d="M23.03 20.76a.24.24 0 0 0 .04-.08.21.21 0 0 0 0-.18c-.03-.07-.07-.09-.12-.07a.14.14 0 0 0-.07.04l.09.08a.2.2 0 0 1 .06.14v.07z"/></g></g></g><g mask="url(#ba)" transform="matrix(1.25 0 0 -1.25 0 32.22)"><g clip-path="url(#bb)"><g clip-path="url(#bc)" transform="translate(0 -.23)"><path fill="#b39853" fill-rule="evenodd" d="M22.54 21a.83.83 0 0 0-.04-.45 1.43 1.43 0 0 0-.25-.38l-.26-.28a2.55 2.55 0 0 1-.19-.22 2.55 2.55 0 0 1-.2-.39l-.2-.01a2.45 2.45 0 0 1-.48-.14 4.92 4.92 0 0 1-1.62-1.17 1.2 1.2 0 0 1-.15-.3c-.04-.1-.09-.16-.14-.2a.1.1 0 0 0-.07-.01l-.35-.06a1.8 1.8 0 0 1-.54-.23l-.29-.18 1.45 1.27c.3.27.72.54 1.23.8.59.3.93.48 1.04.55.2.16.35.32.43.49l.34.73c.07.12.12.28.16.46.03.24.06.37.07.4l.12-.14a.78.78 0 0 1-.06-.53z"/></g></g></g><g mask="url(#bd)" transform="matrix(1.25 0 0 -1.25 0 32.22)"><g clip-path="url(#be)"><g clip-path="url(#bf)" transform="translate(0 -.23)"><path fill="#754517" fill-rule="evenodd" d="M13.69 4.22c-.02-.68-.2-1.17-.57-1.48-.37-.3-.8-.48-1.3-.54-.48-.06-.98 0-1.48.17-.5.16-.96.42-1.37.76A3.7 3.7 0 0 0 8 4.36c-.22.45-.32.92-.32 1.4 0 .44.1.86.3 1.25.2.38.45.7.78.94.33.26.7.4 1.09.46a2.8 2.8 0 0 0 2.07-.52c.55-.4.99-.96 1.32-1.68.31-.67.46-1.34.45-1.99z"/></g></g></g><g mask="url(#bg)" transform="matrix(1.25 0 0 -1.25 0 32.22)"><g clip-path="url(#bh)"><g clip-path="url(#bi)" transform="translate(0 -.23)"><path fill="#754517" fill-rule="evenodd" d="M23.84 11.33c.27-.15.46-.38.57-.7a2 2 0 0 0 .01-1.17c-.19-.71-.53-1.2-1.03-1.46a1.56 1.56 0 0 0-1.3-.08c-.5.19-.74.6-.73 1.23.01.6.25 1.16.7 1.69.27.32.58.52.92.6.3.08.6.04.86-.1z"/></g></g></g><g mask="url(#bj)" transform="matrix(1.25 0 0 -1.25 0 32.22)"><g clip-path="url(#bk)"><g clip-path="url(#bl)" transform="translate(0 -.23)"><path fill="#754517" fill-rule="evenodd" d="M23.33 6.42c.01-.13 0-.28-.05-.46a1.2 1.2 0 0 0-.16-.38 2.88 2.88 0 0 0-.63-.68c-.34-.27-.67-.38-.98-.35-.17.02-.24.12-.23.29.02.15.1.34.26.58.32.5.7.88 1.1 1.14.42.26.65.21.69-.14z"/></g></g></g><g mask="url(#bm)" transform="matrix(1.25 0 0 -1.25 0 32.22)"><g clip-path="url(#bn)"><g clip-path="url(#bo)" transform="translate(0 -.23)"><path fill="#754517" fill-rule="evenodd" d="M23.6 17.13a3.5 3.5 0 0 0 .66-2.28c-.05-.38-.19-.64-.42-.8a1.05 1.05 0 0 0-.84-.15c-.29.06-.59.2-.88.45a3.27 3.27 0 0 0-1.16 1.86c-.12.7 0 1.2.35 1.5.34.3.81.34 1.42.12.32-.12.6-.35.86-.7z"/></g></g></g><g mask="url(#bp)" transform="matrix(1.25 0 0 -1.25 0 32.22)"><g clip-path="url(#bq)"><g clip-path="url(#br)" transform="translate(0 -.23)"><path fill="#754517" fill-rule="evenodd" d="M10.16 17.09c.23-.32.32-.72.28-1.23a3.76 3.76 0 0 0-.82-2c-.28-.22-.68-.27-1.21-.15-.57.13-1.03.41-1.39.86a1.5 1.5 0 0 0-.3.9c0 .37.06.72.21 1.07.16.37.39.66.69.87.33.23.7.34 1.13.3.66-.04 1.13-.25 1.41-.62z"/></g></g></g><g mask="url(#bs)" transform="matrix(1.25 0 0 -1.25 0 32.22)"><g clip-path="url(#bt)"><g clip-path="url(#bu)" transform="translate(0 -.23)"><path fill="#754517" fill-rule="evenodd" d="M16.98 14.85c.17-.34.28-.69.32-1.04.04-.36 0-.63-.1-.81-.23-.4-.61-.61-1.15-.64-.57-.03-1.1.19-1.57.64-.23.22-.38.5-.44.84-.07.3-.05.62.05.94.1.32.26.6.48.8a1.25 1.25 0 0 0 1.75.13c.26-.2.48-.49.66-.86z"/></g></g></g><g mask="url(#bv)" transform="matrix(1.25 0 0 -1.25 0 32.22)"><g clip-path="url(#bw)"><g clip-path="url(#bx)" transform="translate(0 -.23)"><path fill="#754517" fill-rule="evenodd" d="M18 23.46c.52-.24.88-.48 1.06-.72.17-.2.2-.4.1-.59-.09-.16-.27-.29-.53-.38-.25-.1-.53-.13-.82-.12a2.7 2.7 0 0 0-1.6.75c-.36.3-.7.66-1.05 1.1-.09.12-.04.21.15.27a4.86 4.86 0 0 0 2.7-.31z"/></g></g></g><g mask="url(#by)" transform="matrix(1.25 0 0 -1.25 0 32.22)"><g clip-path="url(#bz)"><g clip-path="url(#bA)" transform="translate(0 -.23)"><path fill="#754517" fill-rule="evenodd" d="M15.41 7.28c.21-.13.37-.3.48-.54.1-.2.15-.44.14-.7 0-.24-.07-.47-.18-.67a1.06 1.06 0 0 0-.48-.46c-.41-.2-.76-.14-1.03.16-.27.3-.36.75-.26 1.34.08.52.29.84.61.95.24.08.49.05.72-.08z"/></g></g></g><path fill="url(#bB)" fill-rule="evenodd" d="M8.28 8.31c.33.26.7.4 1.1.46a2.8 2.8 0 0 0 2.06-.52c.55-.4.99-.96 1.32-1.68.31-.67.46-1.34.45-2-.02-.67-.2-1.16-.57-1.47a2.4 2.4 0 0 0-1.3-.54c-.48-.06-.97 0-1.49.17a4.12 4.12 0 0 0-2.33 1.99 3.08 3.08 0 0 0-.02 2.65c.2.38.45.7.78.94z" transform="matrix(1.25 0 0 -1.25 0 32.22)"/><path fill="url(#bC)" fill-rule="evenodd" d="M22.8 11.68c.32.11.62.1.89-.03.27-.15.45-.4.55-.75.11-.38.1-.85-.03-1.38-.18-.72-.52-1.2-1.03-1.46a1.56 1.56 0 0 0-1.3-.08c-.5.19-.75.6-.74 1.23 0 .61.22 1.19.66 1.73.3.37.64.62 1 .74z" transform="matrix(1.25 0 0 -1.25 0 32.22)"/><path fill="url(#bD)" fill-rule="evenodd" d="M22.44 6.6c.41.27.64.22.67-.13.02-.13 0-.29-.04-.46a1.3 1.3 0 0 0-.16-.39 2.97 2.97 0 0 0-.63-.67c-.35-.27-.68-.38-.98-.35-.17.02-.25.11-.23.28.02.15.1.35.25.58.34.5.7.89 1.12 1.15z" transform="matrix(1.25 0 0 -1.25 0 32.22)"/><path fill="url(#bE)" fill-rule="evenodd" d="M22.43 17.94c.3-.11.6-.34.85-.7a3.53 3.53 0 0 0 .68-2.27c-.05-.38-.2-.65-.43-.8-.24-.17-.52-.2-.85-.14-.3.07-.61.23-.92.47a3.47 3.47 0 0 0-1.21 1.9c-.12.7.02 1.18.4 1.47.37.27.86.3 1.48.07z" transform="matrix(1.25 0 0 -1.25 0 32.22)"/><path fill="url(#bF)" fill-rule="evenodd" d="M8.35 17.7c.65-.04 1.12-.25 1.4-.63.23-.3.33-.71.28-1.22a3.82 3.82 0 0 0-.82-2c-.28-.22-.68-.27-1.2-.15-.58.12-1.05.4-1.4.86-.18.23-.28.53-.3.9a2.37 2.37 0 0 0 .9 1.94c.33.23.71.34 1.14.3z" transform="matrix(1.25 0 0 -1.25 0 32.22)"/><path fill="url(#bG)" fill-rule="evenodd" d="M13.82 13.84c-.08.33-.08.66 0 .99.07.33.21.61.41.84.22.24.47.38.77.42.34.05.67-.05.98-.3.28-.21.52-.51.73-.9.19-.36.31-.71.37-1.08.06-.37.03-.64-.07-.83-.24-.4-.62-.6-1.16-.63-.57-.03-1.09.18-1.56.63-.24.23-.4.52-.47.86z" transform="matrix(1.25 0 0 -1.25 0 32.22)"/><path fill="url(#bH)" fill-rule="evenodd" d="M15 23.53c-.1.12-.05.21.14.27a4.93 4.93 0 0 0 2.7-.31 3 3 0 0 0 1.06-.72c.16-.2.19-.4.1-.58-.1-.16-.28-.3-.54-.39a2.1 2.1 0 0 0-.82-.12c-.5.02-1.03.27-1.6.75-.36.3-.7.66-1.04 1.1z" transform="matrix(1.25 0 0 -1.25 0 32.22)"/><path fill="url(#bI)" fill-rule="evenodd" d="M14.2 5.15c-.27.3-.36.75-.26 1.34.08.52.29.83.61.95.24.08.48.05.72-.08.21-.13.37-.3.48-.54a1.54 1.54 0 0 0-.04-1.37 1.05 1.05 0 0 0-.48-.46c-.41-.2-.76-.15-1.03.16z" transform="matrix(1.25 0 0 -1.25 0 32.22)"/><path fill="#ffe292" fill-rule="evenodd" d="M10.25 22.02c.41-.31.87-.5 1.37-.57.93-.13 1.8.1 2.58.65a5.2 5.2 0 0 1 1.65 2.1c.39.84.58 1.67.56 2.49-.02.84-.26 1.46-.71 1.85-.46.38-1 .6-1.63.67-.6.07-1.2 0-1.85-.21a5.2 5.2 0 0 1-1.7-.95 4.65 4.65 0 0 1-1.22-1.53 3.85 3.85 0 0 1-.02-3.32c.24-.48.56-.87.97-1.18zM28.6 17.7c.4-.1.75-.05 1.09.13.33.2.57.49.71.88.15.44.15.92.01 1.46-.23.9-.66 1.5-1.3 1.82-.52.27-1.05.3-1.6.1-.64-.23-.94-.74-.92-1.52.01-.75.3-1.46.87-2.12.34-.4.72-.66 1.14-.75zM28.14 24c.53-.31.8-.26.85.18.02.17 0 .36-.06.58-.05.2-.12.36-.2.48-.21.32-.47.6-.78.84-.44.34-.85.48-1.23.44-.21-.03-.3-.14-.28-.35.02-.2.12-.43.31-.73a4.7 4.7 0 0 1 1.4-1.43zM28 9.54c.39.14.74.44 1.07.87a4.4 4.4 0 0 1 .84 2.85c-.07.47-.24.8-.54 1-.3.2-.64.27-1.04.19a2.76 2.76 0 0 1-1.1-.56 4.07 4.07 0 0 1-1.44-2.33c-.15-.87 0-1.5.43-1.87.43-.37 1.02-.42 1.78-.15z"/><path fill="#ffefc4" fill-rule="evenodd" d="M10.24 9.89c.82.06 1.4.32 1.75.79.29.38.4.9.35 1.53a4.72 4.72 0 0 1-1.02 2.5c-.35.27-.85.33-1.52.19a2.96 2.96 0 0 1-1.73-1.08c-.23-.29-.36-.67-.38-1.13-.01-.46.07-.9.26-1.34.2-.46.5-.82.86-1.08.41-.3.9-.42 1.42-.38z"/><path fill="#ffe292" fill-rule="evenodd" d="M17.16 14.6c-.07-.37-.04-.75.1-1.14.12-.38.32-.7.6-.97.29-.27.62-.43.98-.49.43-.05.83.06 1.2.34.33.24.6.6.82 1.04.2.41.33.84.38 1.27s0 .76-.13 1c-.29.5-.77.76-1.44.8a2.57 2.57 0 0 1-1.96-.8 1.9 1.9 0 0 1-.55-1.05zM22.24 2.6c.65.3 1.09.6 1.33.9.2.26.24.5.12.73-.11.2-.34.36-.67.49a2.7 2.7 0 0 1-1.02.15 3.38 3.38 0 0 1-2-.93 9.1 9.1 0 0 1-1.3-1.38c-.12-.16-.06-.27.17-.34a6.18 6.18 0 0 1 3.37.39zM17.75 25.88c-.34-.39-.45-.94-.33-1.68.1-.65.36-1.04.77-1.18.3-.1.6-.07.9.1.26.16.46.38.6.66.12.27.18.56.17.88-.01.3-.08.58-.22.83-.15.27-.35.47-.6.59-.52.25-.95.18-1.29-.2z"/><path fill="url(#bJ)" fill-rule="evenodd" d="M8.28 8.07c.33.26.7.41 1.1.46.74.1 1.43-.07 2.06-.52.55-.4.99-.96 1.32-1.67.31-.68.46-1.34.45-2-.02-.67-.2-1.16-.57-1.47-.37-.3-.8-.5-1.3-.55a4.03 4.03 0 0 0-3.82 2.16 3.06 3.06 0 0 0-.02 2.65c.2.39.45.7.78.94z" transform="matrix(1.25 0 0 -1.25 0 32.22)"/><path fill="url(#bK)" fill-rule="evenodd" d="M22.08 10.95c.28.33.58.53.92.6.31.08.6.05.87-.1.27-.15.45-.39.57-.7a2 2 0 0 0 0-1.17c-.18-.72-.53-1.2-1.03-1.46a1.57 1.57 0 0 0-1.29-.08c-.5.2-.75.6-.73 1.22 0 .6.24 1.17.7 1.7z" transform="matrix(1.25 0 0 -1.25 0 32.22)"/><path fill="url(#bL)" fill-rule="evenodd" d="M22.58 6.5c.42.27.65.22.68-.13.02-.13 0-.28-.05-.46a1.3 1.3 0 0 0-.15-.39 2.78 2.78 0 0 0-.63-.67c-.35-.27-.68-.38-.98-.35-.17.02-.25.11-.23.28.01.15.1.35.25.58.33.5.7.89 1.11 1.15z" transform="matrix(1.25 0 0 -1.25 0 32.22)"/><path fill="url(#bM)" fill-rule="evenodd" d="M22.5 18.1c.32-.12.6-.35.86-.7a3.5 3.5 0 0 0 .67-2.27c-.05-.38-.19-.65-.42-.81a1.05 1.05 0 0 0-.83-.14c-.3.06-.59.2-.89.44-.29.23-.54.5-.75.83-.21.35-.35.69-.4 1.03-.12.7 0 1.2.35 1.5.34.3.8.34 1.41.12z" transform="matrix(1.25 0 0 -1.25 0 32.22)"/><path fill="url(#bJ)" fill-rule="evenodd" d="M8.19 17.75c.65-.05 1.12-.26 1.4-.64.23-.3.33-.71.28-1.22a3.75 3.75 0 0 0-.81-2c-.28-.22-.69-.27-1.22-.15-.57.12-1.03.4-1.38.86-.19.23-.29.53-.3.9a2.34 2.34 0 0 0 .89 1.94c.33.23.71.34 1.14.3z" transform="matrix(1.25 0 0 -1.25 0 32.22)"/><path fill="url(#bN)" fill-rule="evenodd" d="M13.92 13.98c-.06.31-.05.63.06.95.1.32.25.58.46.8.24.23.5.36.8.4.33.05.66-.04.96-.28.26-.2.48-.49.67-.86.16-.34.27-.69.31-1.04.05-.35.01-.62-.1-.8-.22-.4-.61-.62-1.15-.65-.57-.02-1.09.19-1.56.64-.24.23-.39.5-.45.84z" transform="matrix(1.25 0 0 -1.25 0 32.22)"/><path fill="url(#bJ)" fill-rule="evenodd" d="M17.91 23.65c.52-.24.87-.48 1.06-.72.17-.2.2-.4.1-.58-.09-.17-.27-.3-.54-.39a2.1 2.1 0 0 0-.82-.12c-.49.02-1.02.27-1.6.75-.35.3-.7.66-1.04 1.1-.09.12-.04.21.15.27a4.95 4.95 0 0 0 2.7-.31zM14.24 5c-.27.3-.36.75-.26 1.33.08.52.29.83.61.95.24.08.48.06.72-.08.21-.13.37-.3.48-.53.1-.22.15-.45.14-.7 0-.25-.07-.47-.18-.67a1.08 1.08 0 0 0-.48-.47c-.41-.2-.76-.14-1.03.16z" transform="matrix(1.25 0 0 -1.25 0 32.22)"/><g mask="url(#bO)" transform="matrix(1.25 0 0 -1.25 0 32.22)"><g clip-path="url(#bP)"><g clip-path="url(#bQ)" transform="translate(0 -.23)"><path fill="#754517" fill-rule="evenodd" d="M5.57 23.68c.12.06.2.05.25-.04.03-.07.06-.24.08-.5.02-.37-.05-.79-.2-1.27a5.52 5.52 0 0 0-.68-1.35 4.2 4.2 0 0 0-1.01-1.07c-.41-.3-.83-.45-1.24-.45-.9 0-1.08.4-.56 1.19.18.28.47.63.87 1.05l.96.99a15.9 15.9 0 0 0 1.53 1.45z"/></g></g></g><path fill="url(#bR)" fill-rule="evenodd" d="M5.66 23.5c.26.12.34-.06.23-.53-.19-.9-.57-1.73-1.16-2.5-.69-.89-1.43-1.34-2.23-1.34-.48 0-.74.1-.78.3-.04.17.08.41.35.74.2.22.52.54.97.95l1 .93a8.87 8.87 0 0 0 1.62 1.45z" transform="matrix(1.25 0 0 -1.25 0 32.22)"/><path fill="#ffe292" fill-rule="evenodd" d="M7.16 2.67c.33-.04.37.24.13.86-.4.98-.91 1.88-1.54 2.7-.9 1.16-1.82 1.8-2.77 1.92-.5.07-.79-.05-.83-.34-.04-.26.1-.63.4-1.12A11.85 11.85 0 0 1 4.9 4.1c1.12-.9 1.88-1.38 2.26-1.42z"/><path fill="url(#bS)" fill-rule="evenodd" d="M5.7 23.63c.24.03.26-.2.05-.69a9.59 9.59 0 0 0-1.22-2.12c-.7-.91-1.42-1.42-2.18-1.51-.4-.05-.62.04-.66.26-.03.2.08.5.33.88a10.14 10.14 0 0 0 1.9 2.05c.9.72 1.49 1.1 1.77 1.13z" transform="matrix(1.25 0 0 -1.25 0 32.22)"/><path fill="#ab8e4b" fill-rule="evenodd" d="M7.11 2.91c.04-.04.08-.05.13-.02.05.02.06.06.02.1a.23.23 0 0 0-.03.1c0 .04-.04.07-.1.07s-.08-.03-.08-.08.02-.11.06-.17zM6.9 3.43c.03-.05.07-.07.12-.03.05.03.06.07.04.12l-.1.15c-.04.04-.08.05-.13.02-.05-.03-.06-.07-.02-.12l.1-.14zM6.64 3.96c.03-.05.07-.06.12-.03.05.03.07.06.04.12l-.08.18c-.02.06-.05.08-.11.06-.06-.01-.08-.05-.06-.1l.1-.23zM6.34 4.52c.02-.05.06-.06.11-.03s.06.07.04.12l-.08.18c-.02.04-.06.06-.11.03s-.07-.07-.05-.12l.09-.18zM6.14 5.05c.05.03.06.07.03.12-.1.15-.18.25-.25.3-.04.05-.08.04-.12 0-.04-.04-.04-.08 0-.12.06-.05.13-.14.22-.27.03-.05.07-.06.12-.03zM5.49 5.77c.03-.05.07-.07.11-.03.06.03.07.07.04.12l-.09.13-.1.13c-.02.06-.06.07-.1.04-.06-.03-.07-.07-.05-.12l.1-.14.09-.13zM5.01 6.41c.04-.03.09-.03.13.01.04.04.04.08 0 .12-.13.1-.22.2-.29.33-.02.06-.06.07-.1.03-.06-.03-.07-.06-.05-.11.07-.14.18-.27.31-.38zM4.4 7.04c.04-.04.08-.04.13 0 .03.04.03.08 0 .12l-.18.14c-.08.06-.14.11-.17.16-.04.04-.08.04-.12 0-.04-.04-.05-.08 0-.13.03-.04.09-.1.16-.15l.18-.14zM3.67 7.53c.06-.01.1.01.11.07.02.06 0 .1-.06.1a.5.5 0 0 0-.24.14c-.04.04-.08.04-.12 0-.04-.04-.04-.08-.01-.13a.65.65 0 0 1 .32-.18zM2.92 7.79c.06 0 .09.03.09.09s-.03.08-.09.08h-.15c-.06 0-.1.02-.15.04-.05.03-.09.01-.12-.04s-.02-.08.03-.1a.6.6 0 0 1 .2-.07h.19zM2.34 7.76c.03.03.03.06 0 .08-.02.03-.04.03-.07 0a.3.3 0 0 1-.07-.16V7.5c0-.03.02-.04.06-.04.04 0 .06.01.05.04v.14c0 .06.01.1.03.12zM2.41 7.22c0 .04-.02.06-.06.06-.03 0-.05-.02-.05-.06l.03-.11.05-.1c.02-.04.04-.05.07-.03.03.02.04.05.03.08l-.07.16zM2.69 6.72c-.02.04-.04.04-.07.02-.04-.01-.04-.04-.03-.07l.08-.17c.04-.05.08-.1.13-.12.03-.02.05-.01.07.02.02.03.02.06-.02.07a.28.28 0 0 0-.1.12l-.06.13zM3.06 6.2c-.02.04-.05.05-.08.03-.03-.02-.04-.05-.02-.08.06-.1.11-.16.15-.2.03-.01.06 0 .08.03.02.03 0 .06-.02.07a.5.5 0 0 0-.11.16zM3.48 5.67c0 .04-.02.06-.06.06-.04 0-.05-.02-.05-.06 0-.04.02-.08.05-.13l.1-.12c.03-.02.05-.02.08 0 .02.03.02.06 0 .08-.07.08-.11.13-.12.17zM3.9 5.2c-.03.04-.05.05-.09.03-.03-.02-.03-.04-.02-.08.07-.1.14-.17.2-.24.04-.02.06-.02.1 0 .02.03.02.06 0 .08a.95.95 0 0 0-.2.22zM4.35 4.74c0 .04-.03.05-.07.04-.03 0-.04-.03-.03-.07a.28.28 0 0 1 .07-.11l.1-.1c.01-.02.04-.03.07-.01.03.02.04.04.02.07l-.09.09a.25.25 0 0 0-.07.1zM4.75 4.38c-.03.02-.06.02-.08-.01-.02-.04 0-.06.02-.08l.2-.15c.04-.02.06-.01.08.02.02.03.01.05-.01.08l-.21.14zM5.18 4.01c-.02.02-.05.02-.06-.02-.03-.03-.02-.05.01-.07l.21-.16h.08c.03.03.03.06 0 .08l-.23.17zM5.67 3.66c-.03.03-.05.03-.08 0s-.03-.05 0-.08l.23-.18c.03-.02.05-.01.07.02.02.03.02.05-.01.08-.1.06-.17.12-.21.16zM6.29 3.13c.03-.01.06 0 .08.02.01.03 0 .06-.03.08a.92.92 0 0 0-.2.12c-.03.02-.06.03-.08 0-.03-.02-.03-.05 0-.07.03-.04.1-.09.23-.15zM6.5 3.08c-.02.02-.05 0-.06-.03 0-.04 0-.06.04-.07a.44.44 0 0 0 .1-.07.32.32 0 0 1 .1-.06c.04 0 .06.01.07.05 0 .03 0 .05-.04.06a.28.28 0 0 0-.1.06c-.05.03-.08.06-.1.06zM6.97 2.9c-.03.01-.06 0-.07-.03 0-.04 0-.07.04-.08l.08-.02c.03-.01.05 0 .06.03.01.04 0 .06-.03.08l-.08.02zM19.06 2.66c-.02-.05 0-.09.06-.1.05-.02.1 0 .1.06l.04.04c.04.05.04.08 0 .12-.05.05-.09.05-.13 0a.4.4 0 0 1-.07-.12zM19.35 3.05c-.03-.05-.02-.08.03-.11s.1-.02.13.02c0 .02.03.04.05.07l.06.04c.06 0 .08.04.06.1-.01.06-.05.08-.1.07a.22.22 0 0 1-.14-.07 1.47 1.47 0 0 1-.09-.12zM19.79 3.48c-.04-.05-.04-.09 0-.13.03-.04.08-.04.12 0l.18.15c.05.03.06.07.03.12-.03.05-.07.06-.12.03-.07-.05-.14-.1-.21-.17zM20.21 3.7c.05-.04.09-.04.13 0l.19.14c.04.04.04.08 0 .12-.04.04-.09.04-.13 0l-.18-.14c-.04-.04-.04-.08 0-.12zM20.63 4.17c-.05-.01-.07-.05-.05-.1.01-.06.04-.09.1-.07a1 1 0 0 1 .3.16c.04.03.05.07.02.13-.03.05-.07.06-.12.02a.94.94 0 0 0-.25-.14zM21.22 4.52c-.06-.01-.08-.05-.07-.1.02-.06.05-.08.11-.07.06.01.15.05.27.13.05.03.05.07.02.12-.03.05-.06.06-.11.03a.64.64 0 0 0-.22-.11zM21.78 4.7c-.06 0-.09-.02-.09-.08s.03-.09.09-.09h.17c.07 0 .13.01.17.03.05.02.08.05.06.1-.02.07-.05.09-.1.07a.64.64 0 0 0-.15-.03h-.15zM22.43 4.74c-.06.01-.08-.02-.08-.07 0-.07.02-.1.08-.1l.3-.03c.05 0 .08.03.08.09s-.03.09-.09.09-.16 0-.29.02zM23.2 4.57c-.03.05-.06.07-.12.05-.06-.01-.08-.04-.06-.1.02-.06.07-.1.14-.14l.2-.03c.06 0 .1.02.11.07.02.06 0 .1-.06.1-.13.01-.2.03-.22.05zM23.72 4.27c-.02.06-.06.08-.12.06-.05-.01-.07-.05-.05-.1l.03-.07c.04-.04.08-.04.12 0 .04.04.05.08.01.13l.01-.02zM26.59 9.76c.04-.04.08-.03.13 0 .04.05.04.09-.01.12l-.16.15c-.04.04-.08.04-.12 0-.04-.04-.04-.08 0-.12a1 1 0 0 1 .16-.15zM26.2 10.23c.02-.05.07-.05.11-.02.06.02.07.06.03.1l-.07.12a.27.27 0 0 0-.04.13c0 .06-.03.08-.1.08-.05 0-.07-.02-.07-.08 0-.1.04-.2.13-.33zM26.03 11c0-.06.03-.09.1-.09.05 0 .08.03.08.1l.01.25c0 .06-.02.09-.09.09-.06 0-.08-.03-.08-.1l-.02-.25zM26.2 11.74c0-.06.02-.08.08-.08.05 0 .08.02.09.08 0 .08.03.16.08.25.03.05.02.09-.03.11-.05.03-.09.02-.12-.02a.68.68 0 0 1-.1-.34zM26.44 12.52c0-.05.01-.09.07-.1.06-.02.1 0 .1.06.02.08.05.15.1.22.04.04.03.08 0 .13-.05.04-.09.04-.12 0a.68.68 0 0 1-.15-.3zM26.9 13.2c-.04-.04-.04-.08 0-.12.04-.04.08-.04.12 0l.25.3c.05.04.04.08 0 .12-.04.04-.08.04-.12 0l-.26-.3zM27.5 13.77c-.03-.04-.03-.08.02-.1.05-.04.1-.03.13.02.04.06.12.12.25.19.05.03.06.07.03.11-.03.05-.07.07-.12.04a.76.76 0 0 1-.31-.26zM28.32 14.3c-.05-.02-.07-.06-.05-.12.01-.05.04-.07.1-.05l.48.13c.06.02.08.06.06.11-.01.06-.05.08-.1.06a4.9 4.9 0 0 1-.49-.13zM29.26 14.27c-.06.02-.1 0-.12-.06 0-.06.01-.1.07-.1.12-.04.2-.08.24-.12.05-.04.09-.04.13 0 .04.04.04.09 0 .13a.71.71 0 0 1-.32.15zM29.86 13.8c-.03.05-.07.06-.12.03-.05-.03-.06-.07-.03-.12l.03-.04c.02-.05.07-.05.12-.02.05.03.06.07.03.11l-.03.04zM29.61 18.01c.06.03.07.07.04.11-.03.06-.07.07-.12.04a1 1 0 0 0-.28-.05c-.05 0-.08-.04-.08-.1s.03-.1.08-.09c.17.03.29.05.36.1zM28.77 18.01c.06 0 .1.03.1.1s-.04.08-.1.08c-.1 0-.22.03-.33.09-.06.02-.1.01-.13-.04-.02-.06-.01-.1.04-.12.15-.07.29-.1.43-.1zM28.03 18.38c.05-.03.08-.01.11.04s.02.09-.03.12a.56.56 0 0 0-.23.27c-.03.05-.06.06-.12.03-.05-.03-.06-.07-.04-.12a.77.77 0 0 1 .3-.34zM27.51 19.4c-.03.05-.06.06-.12.03-.05-.03-.06-.06-.03-.12.06-.13.1-.2.14-.25.04-.04.08-.04.13 0 .04.04.04.09 0 .12a.69.69 0 0 0-.07.1l-.05.12zM27.17 19.71c.05-.04.1-.03.13.01.04.05.04.08 0 .12a.31.31 0 0 0-.1.13.88.88 0 0 0-.05.15c-.02.05-.06.07-.12.06-.05-.02-.07-.06-.05-.11l.08-.2a.35.35 0 0 1 .11-.16zM26.89 20.53c0-.06.04-.09.1-.09s.08.03.08.09c-.02.12-.02.22-.01.28.02.05 0 .09-.07.1-.05.02-.09 0-.1-.06a.89.89 0 0 1 0-.32zM26.96 21.33c0-.05.02-.08.08-.1.05-.01.09 0 .1.06.01.13.04.22.09.27.03.05.02.09-.03.11-.05.03-.09.03-.12-.01a.78.78 0 0 1-.12-.33zM27.4 21.99c-.03-.04-.03-.09.01-.12.05-.05.08-.05.12 0 .05.05.13.1.22.12.06.01.08.05.06.11-.01.05-.05.07-.1.06a.57.57 0 0 1-.3-.17zM28.16 22.25c-.06 0-.08-.04-.08-.1 0-.06.02-.08.08-.08l.25.01c.06 0 .1.03.1.1s-.04.08-.1.08h-.25zM28.7 24c.06 0 .1.01.11.07.02.06 0 .1-.06.1a.41.41 0 0 0-.14.05c-.04.04-.09.04-.13 0-.04-.04-.04-.08 0-.12a.45.45 0 0 1 .23-.1zM28.2 24.3c.04-.02.08 0 .12.05.03.04.02.08-.04.1a.68.68 0 0 0-.2.17c-.04.04-.08.04-.13 0-.03-.04-.03-.09 0-.13.1-.09.18-.15.24-.18zM27.63 24.85c.05-.04.09-.03.13 0 .04.05.04.1 0 .12-.08.07-.17.16-.27.28-.04.05-.08.05-.12.01-.04-.04-.04-.08-.01-.13.1-.13.2-.22.27-.28zM27.07 25.45c.04-.04.08-.04.13 0 .04.04.04.08 0 .13a.96.96 0 0 0-.11.18c-.02.06-.05.07-.11.06-.06-.01-.08-.05-.06-.1a.93.93 0 0 1 .15-.27zM26.7 26.04c.03-.05.07-.06.13-.03.05.03.06.06.03.12l-.05.12c-.02.06-.06.08-.11.06-.06-.01-.08-.05-.06-.1 0-.04.03-.1.07-.17zM26.78 26.56c-.06-.02-.07-.06-.04-.1.04-.06.08-.08.13-.05l.05.02c.05 0 .08.04.06.1-.02.05-.05.08-.1.07a.33.33 0 0 1-.1-.04zM18.7 23.36c-.05-.01-.07-.04-.06-.1s.06-.08.11-.07l.1.02c.05 0 .08.02.1.04.05.03.06.07.04.12-.03.05-.07.06-.12.03a.2.2 0 0 0-.09-.03.57.57 0 0 1-.07-.01zM19.2 23.65c-.05-.05-.04-.09 0-.13.04-.04.08-.04.12 0a.9.9 0 0 1 .17.23c.02.06 0 .1-.06.1-.05.02-.1 0-.11-.05a.56.56 0 0 0-.13-.15zM19.54 24.11c0-.05.02-.08.08-.08s.1.03.1.08c0 .03 0 .07.03.13l.02.13c.01.06-.02.09-.08.09s-.09-.03-.09-.09a.4.4 0 0 0-.03-.13l-.03-.13zM19.63 24.74c0-.06.03-.08.1-.08.05 0 .08.02.08.08V24.97c-.01.06-.05.08-.11.06-.06-.02-.08-.05-.06-.1v-.19zM19.54 25.36c.02-.05.06-.06.11-.03s.07.07.04.12l-.13.24c-.01.06-.05.07-.1.04-.06-.03-.07-.07-.05-.12l.13-.25zM19.1 25.9c.04-.03.08-.03.12.01.04.04.04.08 0 .12l-.1.07-.1.06c-.05.02-.09.01-.12-.04s-.02-.08.03-.11a.63.63 0 0 0 .16-.1zM18.25 26.16c-.05-.03-.06-.06-.03-.12.03-.04.07-.06.12-.03h.12c.05 0 .08.03.08.1 0 .06-.03.09-.08.09a.59.59 0 0 1-.2-.04zM17.94 25.72c.03.05.03.1-.01.13-.04.04-.08.04-.11 0a.67.67 0 0 1-.13-.23c0-.05.01-.09.07-.1.06-.02.1 0 .1.06l.08.14zM17.77 25.25c-.01.06-.04.08-.1.07-.06-.02-.08-.06-.07-.11v-.34c0-.05.04-.08.1-.08s.08.03.08.08l-.01.38zM17.83 24.3c0 .06-.03.08-.09.08s-.08-.02-.08-.08c0-.14 0-.25.02-.32.01-.05.05-.07.1-.06.07.02.09.05.07.1l-.02.28zM18.06 23.66c-.03.04-.08.05-.13.03-.04-.03-.06-.08-.03-.13a.63.63 0 0 1 .29-.27c.05-.02.09 0 .1.05.02.06 0 .1-.05.12-.07.02-.13.08-.18.2zM13.78 22.4c.03-.06.07-.07.12-.04l.25.15c.05.02.06.06.03.11s-.07.07-.12.05a9.34 9.34 0 0 1-.25-.15c-.05-.03-.06-.07-.03-.12zM14.45 23.05c-.05-.04-.06-.08-.03-.13s.07-.06.12-.03c.03.02.08.06.13.12.06.06.1.1.13.11.04.04.05.08.02.13-.03.06-.06.07-.1.03a1.8 1.8 0 0 1-.14-.12.92.92 0 0 0-.13-.11zM14.95 23.63c-.03-.05-.02-.1.03-.11.04-.03.09-.03.12.02l.17.24c.04.04.03.08 0 .13-.05.04-.09.04-.12 0l-.2-.28zM15.4 24.3c-.02-.06 0-.1.06-.11s.1 0 .1.06c.03.08.09.18.2.3.03.05.03.09-.01.13-.05.04-.09.04-.12 0a.97.97 0 0 1-.24-.38zM15.78 25.06c-.02-.06 0-.09.05-.1.06-.02.1 0 .12.05l.09.2.07.18c.01.06 0 .1-.06.1-.06.03-.1 0-.11-.05a1.23 1.23 0 0 0-.08-.2l-.08-.18zM16.04 25.83c-.01-.05.01-.09.07-.1.06-.02.09 0 .1.06 0 .09.03.19.06.29.01.06-.01.1-.06.11-.06.02-.1 0-.11-.06-.03-.1-.06-.2-.07-.3zM16.12 26.55c-.02-.06 0-.1.05-.1.06-.02.1 0 .12.05.02.05.03.11.03.18v.2c0 .05-.03.08-.09.08s-.09-.03-.09-.09v-.16a.5.5 0 0 0-.02-.16zM16.05 27.26c0-.05.04-.08.1-.08s.09.03.09.08l-.03.45c0 .06-.03.1-.09.1s-.09-.04-.09-.1l.03-.45zM15.85 28c.02-.05.06-.06.1-.03.06.03.07.07.05.13-.06.12-.15.26-.28.42-.04.04-.08.04-.12 0-.04-.04-.04-.09 0-.13.1-.13.2-.26.25-.39zM15.15 28.87a.46.46 0 0 1-.22.07c-.06 0-.09-.03-.09-.09s.03-.09.09-.1.1-.01.17-.06l.15-.12c.05-.03.09-.02.12.03.02.05.02.1-.03.13l-.19.14zM14.43 28.9c.05-.03.09-.02.12.03.02.05.01.09-.03.12a.84.84 0 0 1-.4.08c-.06 0-.09-.03-.09-.08 0-.06.03-.1.09-.1a.7.7 0 0 0 .3-.05zM13.7 29.02c.06 0 .08.03.08.09s-.02.08-.08.08h-.2l-.2-.03c-.06 0-.1-.04-.1-.1 0-.06.04-.08.1-.08l.4.04zM12.87 28.88c.06 0 .09.04.09.1s-.03.08-.09.08a.64.64 0 0 1-.23-.05c-.05-.02-.07-.06-.06-.12.02-.06.05-.07.1-.05.08.03.14.04.2.04zM12.21 28.87a.51.51 0 0 1-.2-.08l-.17-.14c-.04-.04-.04-.08 0-.11.04-.05.08-.05.12 0 .08.04.12.08.14.1.05.03.1.06.16.06.05.01.07.05.05.1-.01.06-.05.08-.1.07zM11.52 28.35c.06 0 .09.04.09.1s-.03.09-.1.08a.4.4 0 0 1-.18-.06l-.19-.1c-.05-.02-.06-.06-.03-.1.03-.06.07-.07.12-.05l.14.08c.06.03.1.05.15.05zM10.85 28c.03.04.03.08 0 .12-.05.04-.09.04-.13 0l-.14-.11a.62.62 0 0 1-.12-.14c-.03-.05-.02-.09.03-.12s.1-.01.12.03a.5.5 0 0 0 .11.12l.13.1zM9.93 27.28c-.02-.06 0-.1.06-.1.05-.02.1 0 .12.05.04.1.1.19.18.27.04.03.04.07 0 .11-.04.05-.08.05-.12 0a.98.98 0 0 1-.24-.33zM9.56 26.67c-.02-.04 0-.08.04-.11.05-.03.1-.02.11.03l.05.14c.02.06.04.1.07.13.05.03.05.07.01.1-.04.05-.08.06-.13.02a.33.33 0 0 1-.1-.14 3.94 3.94 0 0 0-.05-.17zM9.24 25.93c0-.05.02-.08.08-.08s.1.03.1.08.02.1.06.18l.06.17c.01.05 0 .09-.07.1-.05.02-.09 0-.1-.06l-.07-.2a.63.63 0 0 1-.06-.19zM9.2 24.96c.06 0 .1.03.1.09s.01.15.04.27c.01.06 0 .1-.06.1-.06.02-.1 0-.11-.05a1.5 1.5 0 0 1-.05-.32c0-.06.02-.09.09-.09zM9.2 24.24c.02-.06.06-.08.12-.07.05.02.07.06.06.12l-.05.24c0 .05-.04.08-.1.06-.05-.01-.08-.05-.07-.1l.05-.25zM9.45 23.54c.04-.05.08-.05.13-.02.05.02.06.06.03.1a.84.84 0 0 0-.12.29c-.01.05-.05.07-.1.05-.06-.01-.08-.05-.07-.1a.92.92 0 0 1 .13-.32zM9.83 22.88c.04-.04.08-.04.13 0 .04.04.04.08 0 .12a.57.57 0 0 0-.1.23c-.02.06-.05.07-.1.06-.06-.02-.09-.05-.07-.11a.68.68 0 0 1 .14-.3zM10.42 22.37c.04-.03.08-.02.1.03.04.05.03.1-.01.13l-.3.22c-.03.04-.08.04-.12 0-.04-.05-.04-.09 0-.13l.16-.12.17-.13zM10.88 22.3c-.06.01-.08-.01-.08-.07 0-.06.02-.1.08-.1.05 0 .12-.03.22-.05l.22-.05c.06 0 .1.03.1.09s-.04.09-.1.09l-.22.04c-.1.04-.17.05-.22.05zM11.84 22.1c-.06 0-.08-.03-.08-.09s.02-.1.08-.1h.34c.06 0 .09.04.09.1 0 .06-.03.09-.09.09h-.34zM12.7 22.1c-.05 0-.08-.02-.08-.08s.03-.1.08-.1l.4.08c.05 0 .07.04.05.1-.02.06-.05.08-.1.07a2.97 2.97 0 0 0-.35-.06zM13.35 22.27c-.05-.01-.07-.05-.05-.1.01-.06.04-.08.1-.07.04 0 .08.02.13.05.03 0 .07.03.13.07.05.02.06.06.03.11s-.07.06-.13.04l-.1-.06-.1-.04zM18.24 12.96c-.03.05-.07.06-.12.03-.05-.03-.07-.07-.03-.11l.18-.26c.03-.05.07-.06.12-.03.05.03.06.07.03.12l-.18.25zM17.84 13.23c.05-.03.08-.02.11.03s.02.09-.02.12c-.06.04-.09.13-.09.26 0 .06-.02.09-.08.09-.07 0-.1-.03-.1-.1.01-.18.07-.31.18-.4zM17.56 14.16c0-.06.03-.09.09-.09s.08.03.08.09v.18c0 .07 0 .13.02.18.01.06-.01.09-.06.1-.06.02-.1 0-.11-.05a1 1 0 0 1-.02-.2v-.21zM17.73 15.08c-.01-.05 0-.09.06-.1.06-.02.1 0 .1.06.02.1.07.2.15.27.04.04.04.08 0 .12-.04.05-.09.05-.12.01a.73.73 0 0 1-.2-.36zM18.48 15.8l.18.15c.06.07.13.11.2.14.04.03.05.07.02.12-.03.05-.07.06-.12.04a1.37 1.37 0 0 1-.21-.16l-.19-.17c-.05-.04-.05-.08 0-.12.04-.04.08-.05.12 0zM19.4 16.42c-.06 0-.09-.04-.09-.1s.03-.08.09-.07c.1 0 .27.03.5.07.05 0 .08.04.08.1s-.03.08-.09.07l-.5-.07zM20.46 16.34c-.05.02-.1 0-.13-.05-.03-.04-.01-.08.04-.1.17-.09.33-.16.48-.25.05-.02.09-.01.12.04s.02.08-.03.11c-.15.09-.31.17-.48.25zM21.24 15.63c0 .06-.03.09-.1.09s-.08-.03-.08-.1c0-.04.02-.12.06-.2l.08-.21c0-.06.04-.08.1-.07.06.02.08.06.07.1l-.07.2a.56.56 0 0 0-.06.19zM21.4 14.7c0 .05-.05.08-.1.06-.06-.02-.08-.06-.07-.11.01-.05.01-.1-.01-.16a2.77 2.77 0 0 0-.06-.16c-.02-.06 0-.1.06-.11.05-.02.09 0 .1.06l.08.2c.02.08.02.15 0 .22zM21.02 13.78c.03.05.01.1-.03.12-.05.03-.1.02-.12-.03a5.1 5.1 0 0 1-.16-.37c-.02-.06 0-.1.06-.1.06-.03.1 0 .11.05l.15.33zM20.57 12.96c.04.05.03.1 0 .13-.05.04-.09.04-.13 0a1.18 1.18 0 0 1-.13-.18l-.14-.18c-.04-.04-.06-.07-.03-.12.03-.05.07-.06.11-.03.05.04.1.1.17.19l.15.2zM19.85 12.38c.04.04.04.08 0 .12-.04.04-.09.04-.13 0a.37.37 0 0 0-.27-.1c-.05 0-.08-.03-.08-.1 0-.05.03-.08.08-.08.16 0 .3.06.4.16zM19 12.25c.06-.02.1 0 .11.05.02.06 0 .1-.06.12a.88.88 0 0 1-.14.02l-.15.01c-.06.01-.1-.01-.11-.07-.02-.06 0-.1.06-.1l.15-.01.15-.02zM11.82 11.15c-.01-.05.01-.09.07-.1.05-.01.09 0 .1.06.03.1.04.17.04.22 0 .06-.02.1-.09.1-.05 0-.08-.04-.08-.1l-.04-.18zM11.95 11.74c0-.06.03-.08.09-.08s.08.02.08.08v.48c0 .06-.02.08-.08.08s-.1-.02-.1-.08v-.48zM11.91 12.6c.01-.06.05-.08.1-.06.06.02.09.05.08.1l-.03.15a.49.49 0 0 1-.06.14c-.03.04-.07.05-.12.02-.05-.03-.06-.06-.03-.11a.27.27 0 0 0 .05-.12l.01-.12zM11.72 13.22c.03-.05.07-.06.12-.03.04.03.06.07.03.13a.5.5 0 0 0-.05.18l-.03.2c0 .05-.04.08-.1.08-.05 0-.08-.03-.07-.08l.02-.24a.9.9 0 0 1 .08-.24zM11.34 14.15c.04-.05.08-.05.12 0 .04.03.04.08.01.12l-.2.26c-.04.05-.08.05-.12 0-.05-.04-.05-.08 0-.13l.1-.12.1-.13zM10.78 14.67c.06 0 .09.03.09.1 0 .05-.03.08-.09.08l-.37.02c-.05 0-.08-.03-.08-.08 0-.06.03-.1.08-.1.08 0 .21 0 .37-.02zM9.82 14.62c.06 0 .1.03.1.09s-.04.08-.1.09H9.6a.6.6 0 0 1-.22-.07c-.05-.02-.07-.06-.03-.12.02-.05.06-.06.11-.03l.18.04h.18zM8.96 14.32c.05.03.06.06.03.12-.02.05-.06.06-.12.03l-.16-.09a.59.59 0 0 1-.15-.1c-.04-.05-.04-.1 0-.13.05-.04.09-.04.12 0l.13.1.15.07zM8.31 13.76c.04.04.04.09 0 .13-.04.04-.08.04-.12 0-.1-.14-.22-.32-.32-.56-.02-.05 0-.09.05-.1.06-.02.1 0 .12.06.09.2.18.36.27.47zM8.03 12.83c0 .06-.03.08-.09.08s-.09-.02-.09-.08l-.01-.25.01-.24c.02-.05.05-.07.1-.06.06.01.09.05.07.1a.77.77 0 0 0 0 .23v.22zM8.16 11.95c-.01.05-.05.07-.1.06s-.09-.05-.08-.11l.12-.37c.02-.05.05-.07.1-.06.07.02.09.05.07.1-.07.2-.1.32-.11.38zM8.3 11.16c.16-.19.24-.3.28-.33.04-.04.08-.04.12 0 .05.04.05.08 0 .12l-.27.33c-.04.05-.08.05-.12 0-.04-.03-.04-.07 0-.12zM9.36 10.4c.04-.04.08-.03.11.02s.02.1-.03.12c-.03.02-.08.05-.17.08a.62.62 0 0 0-.16.1c-.04.03-.09.02-.13-.02-.05-.04-.04-.08 0-.11a.9.9 0 0 1 .18-.1l.2-.1zM9.95 10.42c-.05 0-.08-.02-.08-.08s.03-.1.08-.1c.23 0 .41.02.54.05.06.01.08.05.06.1-.01.06-.05.08-.1.07a2.49 2.49 0 0 0-.5-.04zM10.85 10.51c-.05 0-.07-.04-.06-.1.02-.05.05-.07.1-.06l.2.02c.08.01.14.04.18.09.04.04.03.08 0 .12-.05.04-.09.04-.13 0-.02-.03-.07-.05-.13-.05l-.16-.02zM11.44 10.75c-.06-.01-.07-.05-.06-.1.02-.06.05-.08.1-.07.1.04.19.08.27.15.04.05.04.09 0 .12-.04.05-.09.05-.12.01a.5.5 0 0 0-.19-.1zM19.24 2.43c-.03.02-.05.02-.07-.02-.02-.03-.02-.06.01-.08a.4.4 0 0 1 .21-.05c.04 0 .06 0 .06.04s-.02.06-.05.06c-.06 0-.1.03-.16.05zM19.7 2.36c-.04 0-.06-.01-.06-.05 0-.03.02-.05.06-.05h.18c.03 0 .05.02.05.05 0 .04-.02.05-.05.05h-.18zM20.21 2.4c-.04 0-.05-.02-.05-.05 0-.04.01-.06.05-.06h.15c.03 0 .05.02.05.06 0 .03-.02.05-.05.05h-.15zM20.62 2.44c-.03-.01-.04-.04-.03-.07s.03-.05.06-.04l.15.03c.03 0 .05.03.05.06 0 .04-.02.06-.05.06a.77.77 0 0 1-.18-.04zM21.13 2.55c-.03 0-.05-.02-.05-.05 0-.04.02-.06.05-.06.05 0 .13.01.24.04.03.01.05.03.04.06-.01.04-.04.05-.07.04a1.5 1.5 0 0 0-.21-.03zM21.75 2.65c-.03-.01-.04-.03-.02-.07.02-.03.04-.04.08-.02l.1.03c.02 0 .06 0 .1.02.04 0 .05.03.04.06 0 .04-.03.05-.07.04a1.51 1.51 0 0 1-.23-.06zM22.3 2.87c-.04-.02-.04-.04-.04-.07.01-.04.03-.05.07-.05.1.03.18.07.24.13.03.03.03.05 0 .07-.02.03-.04.03-.07 0a.37.37 0 0 0-.2-.08zM22.78 3.1c-.03-.02-.04-.04-.02-.07.02-.04.05-.05.08-.03l.18.12c.03.01.04.04.02.07-.02.03-.04.04-.08.02a1.28 1.28 0 0 0-.18-.11zM23.23 3.33c-.03-.01-.04-.04-.02-.07.02-.04.04-.04.07-.02.1.08.18.12.24.15.03.01.04.03.02.07-.01.03-.04.04-.07.02a.92.92 0 0 1-.24-.15zM23.55 3.6c0-.03.01-.05.05-.05s.06.02.06.05l.03.08c.02.04 0 .06-.02.08-.04.02-.06.01-.08-.02a.32.32 0 0 1-.04-.14zM23.64 3.92c-.01-.01-.02-.03-.01-.06 0-.03.03-.05.06-.03.03 0 .05.02.06.05 0 .04-.01.06-.04.07-.04 0-.06 0-.07-.03zM26.9 9.7c-.03.02-.05 0-.06-.03 0-.04 0-.06.03-.07l.26-.04c.04 0 .05.02.05.05s-.02.06-.05.06l-.23.04zM27.7 9.57c.04 0 .05.01.05.05 0 .03-.01.05-.05.05-.09 0-.17 0-.24.02-.04 0-.06 0-.07-.04 0-.04 0-.06.04-.07l.27-.01zM27.89 9.76c-.03-.02-.03-.04-.01-.08.01-.03.03-.04.07-.02l.14.04c.05.02.1.04.13.07.03.02.03.04 0 .07-.02.02-.05.03-.08 0a.23.23 0 0 0-.12-.05.7.7 0 0 1-.13-.03zM28.4 10c-.03 0-.05-.01-.05-.05s.02-.06.05-.06c.1 0 .18.05.26.13.03.02.03.05 0 .07-.03.03-.05.03-.08 0-.06-.05-.12-.09-.18-.09zM28.76 10.25c-.02-.03-.02-.05.02-.07.03-.01.06 0 .08.02.04.06.08.11.12.14.03.03.04.05.02.08s-.04.04-.07.02a.64.64 0 0 1-.17-.19zM29.08 10.66c-.04-.02-.04-.04-.02-.07.02-.04.04-.04.07-.02.09.05.15.12.17.23.01.03 0 .06-.04.07-.03 0-.06 0-.07-.04-.01-.08-.05-.14-.11-.17zM29.32 11.06c-.04-.01-.04-.03-.02-.07.02-.03.04-.04.07-.02l.1.1.07.13c.02.03 0 .05-.02.07-.04.02-.06.01-.08-.02a.67.67 0 0 0-.05-.1c-.02-.04-.04-.07-.07-.09zM29.55 11.53c-.01-.03 0-.06.02-.07.04-.02.06-.02.08 0l.11.28c.01.04 0 .06-.03.07s-.06 0-.07-.04a1.79 1.79 0 0 0-.1-.24zM29.77 12.08c-.03-.03-.03-.05 0-.08.02-.03.05-.03.07 0a.3.3 0 0 1 .08.12l.05.14c.01.03 0 .05-.04.06-.03.01-.06 0-.07-.03a.78.78 0 0 1-.03-.12.22.22 0 0 0-.06-.1zM29.86 12.58c-.01-.03 0-.06.03-.08.03-.01.06 0 .08.02.04.08.06.19.05.35 0 .03-.02.04-.05.04-.04 0-.06 0-.06-.04v-.16c0-.04-.02-.1-.05-.13zM29.86 13.18c0-.04.02-.06.06-.06.03 0 .05.02.05.06v.18c0 .04-.02.06-.05.06-.04 0-.06-.02-.06-.06v-.18zM29.83 18.23c-.02-.02-.02-.05 0-.08.03-.03.05-.03.08 0 .04.05.1.1.19.15.03.01.04.03.02.06-.02.04-.04.05-.08.03a.54.54 0 0 1-.21-.16zM30.2 18.56c-.03-.02-.03-.04 0-.07.02-.02.04-.03.07 0a.4.4 0 0 1 .11.14l.07.16c.02.04 0 .06-.02.08-.03.02-.06.01-.08-.02l-.06-.15a.33.33 0 0 0-.09-.14zM30.37 19.26c-.01-.03 0-.05.03-.06.04-.02.06 0 .07.03l.06.2c.02.07.02.14 0 .2 0 .03-.03.05-.07.04s-.04-.04-.04-.07a.34.34 0 0 0 0-.17l-.05-.17zM30.44 19.92c0-.04.03-.05.07-.04.03 0 .05.03.04.07l-.03.12a.8.8 0 0 1-.03.13c-.02.03-.04.04-.07.01-.03 0-.04-.03-.03-.07a.34.34 0 0 0 .03-.11l.02-.11zM30.3 20.45c0-.04.03-.04.06-.04.04.01.05.03.04.07l-.04.13c-.03.05-.04.1-.05.13-.01.03-.03.05-.07.04-.03-.02-.05-.04-.04-.07l.05-.13.04-.13zM30.05 20.98c0-.04.02-.05.06-.05s.06.02.06.05a.5.5 0 0 1-.09.21c-.02.03-.05.04-.07.02-.04-.02-.04-.04-.02-.08a.3.3 0 0 0 .06-.15zM29.8 21.37c0-.03.02-.05.06-.04.04.01.05.03.04.07a.48.48 0 0 1-.08.13c-.04.05-.07.1-.1.12-.02.02-.05.02-.07 0-.03-.03-.03-.05 0-.08 0-.02.04-.05.08-.09s.05-.07.06-.1zM29.33 21.77c.03-.03.05-.02.08 0 .02.03.02.06 0 .08a.9.9 0 0 1-.12.1c-.04.02-.06.01-.08-.02-.02-.03-.01-.06.02-.07a.32.32 0 0 0 .1-.1zM28.98 21.98c.04-.01.06 0 .07.04.01.03 0 .06-.04.06a.46.46 0 0 1-.13.02.4.4 0 0 0-.13.03c-.03.02-.06.01-.07-.02-.02-.03-.02-.05.02-.07a.73.73 0 0 1 .14-.04l.14-.02z"/><g mask="url(#bT)" transform="matrix(1.25 0 0 -1.25 0 32.22)"><g clip-path="url(#bU)"><g clip-path="url(#bV)" transform="translate(0 -.23)"><path fill="#fff" fill-rule="evenodd" d="M14.66 24.36c-.04-.04-.07-.09-.07-.16-.02-.16.06-.34.22-.55l.38-.5c-.1.07-.2.15-.3.25-.21.19-.35.35-.41.49-.06.13-.05.25.03.36a.4.4 0 0 0 .15.1z"/></g></g></g><g mask="url(#bW)" transform="matrix(1.25 0 0 -1.25 0 32.22)"><g clip-path="url(#bX)"><g clip-path="url(#bY)" transform="translate(0 -.23)"><path fill="#fff" fill-rule="evenodd" d="M6.48 17.52c.01.1.06.2.14.3.16.23.42.41.78.53a1.44 1.44 0 0 0 1.42-.23l-.3.07c-.24.05-.5.07-.77.07s-.56-.12-.88-.37a2.45 2.45 0 0 1-.39-.37z"/></g></g></g><g mask="url(#bZ)" transform="matrix(1.25 0 0 -1.25 0 32.22)"><g clip-path="url(#ca)"><g clip-path="url(#cb)" transform="translate(0 -.23)"><path fill="#fff" fill-rule="evenodd" d="M3.7 12.15a3.41 3.41 0 0 1-.4-.08 1.6 1.6 0 0 1-.6-.25l-.3-.23c0 .05.03.1.06.17a.8.8 0 0 0 .32.33c.15.09.35.12.6.1.12 0 .23-.02.32-.04z"/></g></g></g><g mask="url(#cc)" transform="matrix(1.25 0 0 -1.25 0 32.22)"><g clip-path="url(#cd)"><g clip-path="url(#ce)" transform="translate(0 -.23)"><path fill="#fff" fill-rule="evenodd" d="M10.15 9.4c.23-.08.41-.17.55-.28a3.57 3.57 0 0 1-1.86.03c-.4-.1-.72-.25-.97-.47-.13-.11-.22-.2-.27-.3.01.09.08.19.18.3.21.25.55.46 1 .64.46.2.92.21 1.37.07z"/></g></g></g><g mask="url(#cf)" transform="matrix(1.25 0 0 -1.25 0 32.22)"><g clip-path="url(#cg)"><g clip-path="url(#ch)" transform="translate(0 -.23)"><path fill="#fff" fill-rule="evenodd" d="M13.53 15.18c-.06.01-.1.06-.12.12-.04.14.04.35.24.62a1.66 1.66 0 0 0 1.12.68l-.53-.3a1.4 1.4 0 0 1-.56-.67 2.36 2.36 0 0 1-.15-.45z"/></g></g></g><g mask="url(#ci)" transform="matrix(1.25 0 0 -1.25 0 32.22)"><g clip-path="url(#cj)"><g clip-path="url(#ck)" transform="translate(0 -.23)"><path fill="#fff" fill-rule="evenodd" d="M20.82 18.44a1.11 1.11 0 0 1-.25-.3 1.5 1.5 0 0 1-.2-.88c.04-.53.07-.84.1-.92a1.76 1.76 0 0 0-.2 1.13 1.47 1.47 0 0 0 .55.97z"/></g></g></g><g mask="url(#cl)" transform="matrix(1.25 0 0 -1.25 0 32.22)"><g clip-path="url(#cm)"><g clip-path="url(#cn)" transform="translate(0 -.23)"><path fill="#fff" fill-rule="evenodd" d="M21.83 11.55a3.75 3.75 0 0 1-.77-1.42l-.12-.68a1.6 1.6 0 0 0-.01.45 2.7 2.7 0 0 0 1.05 1.9c.13.08.25.14.35.16-.22-.2-.38-.33-.5-.41z"/></g></g></g><g mask="url(#co)" transform="matrix(1.25 0 0 -1.25 0 32.22)"><g clip-path="url(#cp)"><g clip-path="url(#cq)" transform="translate(0 -.23)"><path fill="#fff" fill-rule="evenodd" d="M13.88 7.35a.75.75 0 0 0 .48.65c.2.09.37.1.54.05a.49.49 0 0 0 .2-.1l-.17.01c-.14 0-.28-.01-.43-.05a.9.9 0 0 1-.44-.31 1.73 1.73 0 0 1-.18-.25z"/></g></g></g><g mask="url(#cr)" transform="matrix(1.25 0 0 -1.25 0 32.22)"><g clip-path="url(#cs)"><g clip-path="url(#ct)" transform="translate(0 -.23)"><path fill="#fff" fill-rule="evenodd" d="M21.12 5.7c0 .06.02.13.06.22.08.18.22.37.41.55a2.58 2.58 0 0 0 .89.53 5.1 5.1 0 0 1-.71-.47 2.76 2.76 0 0 1-.65-.82z"/></g></g></g><path fill="#f6e3a0" fill-rule="evenodd" d="M3.89 18.3c-.05.03-.09.03-.13-.01-.04-.04-.04-.09 0-.13a.28.28 0 0 1 .12-.05l.13-.05c.06-.03.1-.01.13.04.02.05.01.09-.04.11l-.11.04a.4.4 0 0 0-.1.04zM4.45 18.25c-.05 0-.08-.03-.08-.09s.03-.09.08-.1c.06 0 .11.02.17.05l.14.08c.06.02.07.06.04.12-.03.04-.07.06-.12.03l-.11-.06c-.04-.03-.08-.04-.12-.03zM5 18.51c-.05-.03-.05-.07 0-.11.04-.05.08-.05.12-.02a.9.9 0 0 1 .22.25c.03.05.01.1-.04.12-.05.03-.08.02-.12-.03a.77.77 0 0 0-.18-.2zM5.43 19c-.04-.03-.03-.07.01-.11.04-.05.09-.05.13 0 .08.08.15.2.22.35l-.01.07a.1.1 0 0 1-.06.05c-.05 0-.09-.01-.11-.07-.04-.1-.1-.2-.18-.28zM6.07 19.98c-.05.01-.1 0-.1-.06a.93.93 0 0 0-.17-.3.08.08 0 0 1 0-.06c0-.02.02-.04.04-.05.05-.03.09-.02.12.04.1.12.15.24.18.32.01.06 0 .1-.07.1zM6.42 20.56c.01.06 0 .1-.06.11-.06.02-.1 0-.11-.05l-.15-.31c-.03-.05-.02-.1.03-.12s.09-.03.12.02c.07.11.13.22.17.35zM6.33 20.98c-.03-.05-.01-.09.04-.12.06-.02.1-.01.12.04.08.14.12.3.13.47 0 .06-.03.09-.09.08-.06 0-.09-.03-.09-.1a.84.84 0 0 0-.1-.37zM6.49 21.75c0-.06.03-.09.09-.09s.08.03.09.09l.01.2c.02.1.02.17.02.21 0 .06-.03.1-.08.1s-.1-.04-.1-.1l-.02-.2a1.92 1.92 0 0 1-.01-.21zM6.54 22.65c0-.06.03-.08.1-.08.05 0 .08.02.08.08l.02.19v.19c0 .06-.04.09-.1.09-.06 0-.09-.03-.08-.1v-.18l-.02-.19zM6.49 23.44c0-.06.03-.1.1-.1.05 0 .08.04.08.1 0 .1-.04.21-.12.32-.04.05-.08.06-.13.03s-.06-.07-.03-.12a.4.4 0 0 0 .1-.23zM5.9 23.96c.06-.02.1 0 .12.04.03.05.02.1-.03.12a.6.6 0 0 1-.26.04c-.06 0-.08-.02-.08-.09 0-.06.02-.09.08-.09.08 0 .14 0 .17-.02zM5.13 23.9c.05.03.06.07.03.12-.03.05-.07.07-.12.04a.96.96 0 0 1-.2-.11c-.04-.04-.05-.08-.02-.13.02-.05.06-.06.11-.03l.2.12zM4.48 23.55c.05.03.06.07.03.12-.03.05-.07.06-.12.04a2.17 2.17 0 0 1-.34-.29c-.05-.03-.06-.08-.02-.13.03-.05.07-.06.11-.02l.17.14c.06.07.12.11.17.14zM3.81 22.81c.04.05.03.09-.03.11-.04.03-.09.03-.12-.01-.1-.14-.17-.25-.21-.37-.02-.05 0-.09.06-.1.06-.02.1 0 .11.06.03.07.1.18.2.31zM3.33 21.95c.02.06 0 .1-.05.1-.06.03-.1 0-.12-.05a1.6 1.6 0 0 1-.09-.3c0-.05.02-.09.08-.1.05-.02.09 0 .1.06.01.07.04.18.09.3zM3.01 21.2c-.05 0-.08-.03-.08-.08l-.02-.18a1.06 1.06 0 0 1-.02-.18c0-.06.03-.09.09-.09s.09.03.09.1c0 .03 0 .09.02.17l.02.18c0 .05-.03.08-.1.08zM3.03 20.08c0 .06-.03.1-.09.1s-.09-.04-.09-.1v-.31c0-.06.03-.1.1-.1.05 0 .08.04.08.1v.31zM2.98 19.34c-.06-.03-.07-.07-.04-.13L3 19c.01-.05.05-.07.1-.06.06.02.09.05.07.11l-.07.27c-.03.05-.07.06-.12.03zM3.32 18.47c.03-.05.07-.06.12-.03.05.03.06.07.03.12a.85.85 0 0 1-.15.18c-.05.03-.1.02-.12-.03-.03-.05-.02-.1.02-.13a.68.68 0 0 0 .1-.11z"/><path fill="#f6ebc0" fill-rule="evenodd" d="M7.1 2.87c.03-.05.07-.06.12-.03.05.03.06.07.03.12a.2.2 0 0 0-.04.08c0 .06-.03.08-.1.08s-.08-.02-.07-.08.02-.12.06-.17zM6.88 3.38c.03-.05.07-.05.12-.03.06.03.07.08.04.13 0 .02-.04.06-.1.14-.03.05-.07.06-.12.03-.06-.03-.06-.07-.03-.11a.6.6 0 0 0 .1-.16zM6.63 3.92c.02-.06.06-.07.11-.04.06.04.07.08.04.12l-.08.2c-.02.05-.05.07-.1.05-.06-.02-.08-.05-.06-.1.02-.09.06-.17.1-.23zM6.32 4.48c.02-.05.06-.06.11-.03s.07.07.04.12l-.08.17c-.02.05-.06.06-.11.04-.05-.03-.06-.08-.05-.13.05-.07.07-.13.09-.17zM6.12 5c.06.03.07.07.03.12-.09.15-.17.26-.24.31-.05.04-.09.04-.13 0-.04-.04-.04-.08 0-.12.06-.06.14-.15.22-.28.03-.04.07-.05.12-.03zM5.47 5.72c.03-.05.07-.06.12-.03.05.03.06.07.03.12l-.08.14-.1.13c-.03.05-.06.06-.11.03s-.07-.07-.04-.12l.1-.13c.04-.06.07-.1.08-.14zM5 6.37c.04-.04.08-.03.13 0 .04.05.04.09-.01.12-.12.1-.21.21-.28.35-.02.04-.06.05-.12.03-.05-.03-.06-.08-.04-.13.08-.14.19-.27.32-.37zM4.38 7c.04-.04.08-.04.13 0 .04.05.04.08 0 .12l-.18.14c-.08.06-.13.1-.17.16-.03.04-.07.04-.12 0-.04-.04-.04-.09 0-.13a3.32 3.32 0 0 1 .34-.3zM3.66 7.5c.05-.02.09 0 .1.05.02.06 0 .1-.06.11a.46.46 0 0 0-.24.14c-.04.04-.08.04-.12 0-.04-.04-.04-.09 0-.13a.68.68 0 0 1 .32-.18zM2.9 7.74c.06 0 .1.03.1.1 0 .06-.04.08-.1.08h-.15a.4.4 0 0 0-.14.04c-.06.02-.1.01-.13-.04-.02-.05-.01-.09.03-.12a.53.53 0 0 1 .2-.05h.2zM2.19 7.47c0-.04.02-.06.06-.06.03 0 .05.02.05.06v.13c0 .06 0 .1.03.12.02.03.02.06 0 .08-.03.03-.06.03-.08 0a.27.27 0 0 1-.06-.16v-.17zM2.4 7.18c0 .04-.03.06-.07.06-.03 0-.04-.02-.04-.06 0-.03 0-.07.03-.11l.04-.11c.02-.04.04-.04.08-.02.03.01.04.04.02.07l-.04.08a.46.46 0 0 0-.03.1zM2.67 6.68c-.02.03-.04.04-.07.02-.03-.02-.04-.04-.03-.07l.09-.17a.3.3 0 0 1 .12-.12c.03-.02.05-.01.07.02.02.03.02.05-.02.07a.3.3 0 0 0-.1.1l-.06.15zM3.04 6.17c-.02.03-.04.03-.08.02-.02-.02-.03-.05-.02-.08a.6.6 0 0 1 .16-.2c.03-.01.05 0 .07.02.02.04.01.06-.02.08a.57.57 0 0 0-.11.16zM3.46 5.63c0 .04-.02.05-.06.05-.03 0-.05-.01-.04-.05 0-.04.01-.09.05-.13a.53.53 0 0 1 .1-.11c.02-.03.05-.03.07 0 .03.02.03.05 0 .07l-.07.08a.17.17 0 0 0-.05.1zM3.88 5.17c-.02.03-.05.04-.08.02s-.03-.05-.02-.08c.06-.09.13-.17.2-.24.03-.03.06-.03.08 0 .03.03.03.05 0 .08a.88.88 0 0 0-.18.22zM4.34 4.7c-.01.04-.04.05-.08.04-.03-.01-.04-.04-.03-.07a.3.3 0 0 1 .07-.1.72.72 0 0 0 .1-.11c.01-.03.04-.04.07-.02.04.02.04.05.02.08l-.08.08a.3.3 0 0 0-.07.1zM4.73 4.34c-.03.02-.05.02-.07-.02-.02-.03-.02-.06.01-.08l.21-.14c.03-.03.06-.02.08.02.02.03 0 .05-.02.07l-.2.15zM5.33 3.72c.03-.02.05-.01.07.01.03.02.03.05 0 .07-.1.08-.17.14-.23.17-.03.02-.05 0-.07-.02-.02-.03-.02-.06.02-.08.06-.03.12-.08.2-.15zM5.65 3.62c-.03.02-.05.02-.08 0-.02-.03-.02-.06 0-.08l.23-.18c.03-.02.06-.02.08.01.02.04 0 .06-.02.08l-.2.17zM6.15 3.15l.12-.06c.03-.02.06 0 .08.02.02.03.01.05-.02.07a2.98 2.98 0 0 0-.21.13c-.03.03-.05.03-.08 0s-.03-.05 0-.08a.34.34 0 0 1 .1-.08zM6.49 3.04c-.04.01-.06 0-.07-.03 0-.04 0-.06.03-.08a.63.63 0 0 0 .11-.06.36.36 0 0 1 .1-.06c.04-.01.06 0 .07.04.01.04 0 .06-.04.06a.43.43 0 0 0-.1.06l-.1.07zM6.95 2.86c-.03.01-.05 0-.06-.04-.01-.03 0-.06.03-.07L7 2.72c.03-.01.06 0 .07.04 0 .04-.01.06-.04.07l-.08.03z"/><path fill="#f6e3a0" fill-rule="evenodd" d="M19.04 2.62c-.02-.06 0-.1.06-.1s.1 0 .11.05l.03.05c.04.04.04.09 0 .12-.05.05-.08.05-.12 0a.32.32 0 0 1-.08-.12zM19.34 3c-.04-.04-.03-.08.02-.1.05-.03.1-.02.13.01a.4.4 0 0 0 .05.07c.02.03.04.04.07.05.05 0 .07.04.06.1-.02.05-.05.08-.1.07s-.1-.04-.14-.08l-.1-.11zM19.77 3.43c-.04-.04-.04-.08 0-.12.04-.04.08-.04.12 0l.18.14c.05.04.06.08.03.12-.03.05-.07.07-.12.03-.07-.04-.14-.1-.22-.17zM20.2 3.65c.04-.04.08-.04.12 0l.19.15c.04.03.05.07 0 .12-.04.04-.09.04-.13 0l-.19-.15c-.03-.03-.03-.07 0-.12zM20.62 4.13c-.05-.01-.07-.05-.06-.1.02-.07.05-.08.1-.07.09.02.18.08.3.16.05.03.05.07.03.12-.04.06-.07.07-.12.03a.87.87 0 0 0-.25-.14zM21.2 4.47c-.06 0-.08-.04-.06-.1.01-.05.05-.08.1-.07.07.02.16.06.27.13.05.04.06.08.03.13s-.07.06-.12.03a.9.9 0 0 0-.22-.12zM21.76 4.66c-.06 0-.08-.03-.08-.08 0-.06.03-.1.08-.1h.17l.18.04c.05.01.07.05.05.1-.01.06-.05.08-.1.06a.43.43 0 0 0-.15-.02h-.15zM22.42 4.7c-.06 0-.09-.02-.09-.08s.03-.09.09-.1l.29-.02c.06 0 .09.03.09.08 0 .06-.03.1-.09.1s-.16 0-.3.02zM23.17 4.52c-.02.06-.05.07-.11.06-.06-.01-.08-.05-.06-.1.03-.07.08-.1.15-.13.03-.02.1-.03.2-.05.06 0 .1.02.1.08.03.05 0 .09-.05.1h-.13l-.1.04zM23.7 4.23c-.01.05-.05.07-.11.06-.06-.02-.08-.05-.05-.1 0-.03.01-.05.03-.07.03-.05.07-.05.11 0 .04.03.05.07.03.1zM26.57 9.71c.05-.03.08-.03.13.02.04.04.04.07 0 .1a.9.9 0 0 0-.16.16c-.04.04-.08.04-.12 0-.04-.04-.05-.09 0-.13.03-.05.08-.1.15-.15zM26.17 10.19c.04-.05.08-.06.13-.03s.06.07.03.12c-.08.1-.11.18-.11.23 0 .06-.04.1-.1.1-.06 0-.09-.04-.08-.1 0-.09.05-.2.13-.32zM26.02 10.96c0-.06.02-.09.08-.09s.1.03.1.09v.26c0 .05-.02.08-.08.08s-.09-.03-.1-.08v-.26zM26.17 11.7c0-.06.03-.09.09-.09s.09.03.1.09c0 .08.02.16.08.25.03.04.02.08-.03.12-.05.02-.1.01-.13-.03a.68.68 0 0 1-.1-.34zM26.43 12.49c-.01-.06.01-.1.06-.12.06-.01.1 0 .1.06.02.08.05.16.1.22.04.05.04.1 0 .13-.05.05-.08.04-.12 0a.66.66 0 0 1-.14-.3zM26.88 13.16c-.04-.04-.04-.08 0-.13.04-.04.08-.04.12 0l.13.15.13.15c.04.04.04.08 0 .12-.04.05-.08.05-.13 0-.01 0-.1-.1-.25-.3zM27.48 13.74c-.03-.05-.02-.1.03-.12.05-.04.09-.03.12.02.04.06.12.12.25.2.05.02.06.06.03.11s-.07.06-.12.03a.81.81 0 0 1-.31-.24zM28.3 14.25c-.05-.02-.07-.06-.05-.11.01-.06.05-.07.1-.05l.48.13c.06.01.08.05.06.1-.01.06-.05.08-.1.07a5.2 5.2 0 0 1-.48-.14zM29.24 14.23c-.06.01-.1 0-.1-.06-.02-.06 0-.1.05-.11.12-.03.2-.07.24-.11.05-.04.09-.04.13 0 .04.04.04.08 0 .12a.81.81 0 0 1-.32.16zM29.85 13.75c-.03.05-.07.06-.13.03-.05-.03-.06-.06-.03-.11l.03-.04c.03-.05.07-.06.12-.03.05.03.06.07.03.12l-.02.03zM29.63 17.91c.05.03.06.07.03.12-.03.05-.07.07-.12.04a.85.85 0 0 0-.28-.06c-.05 0-.08-.04-.08-.1 0-.06.03-.08.08-.08.16.02.28.05.37.08zM28.78 17.91c.06 0 .1.03.1.1 0 .06-.04.09-.1.09a.75.75 0 0 0-.33.08c-.05.03-.09.01-.12-.04s-.02-.08.03-.1a.93.93 0 0 1 .42-.13zM28.04 18.29c.05-.03.09-.02.12.04.03.04.02.08-.03.11a.54.54 0 0 0-.24.28c-.02.04-.06.06-.11.03s-.06-.07-.04-.12a.68.68 0 0 1 .3-.34zM27.52 19.3c-.03.06-.06.07-.11.04-.05-.03-.07-.08-.04-.13.06-.12.1-.2.14-.25.04-.04.09-.04.13 0 .04.04.04.09 0 .13l-.12.22zM27.18 19.61c.05-.03.09-.03.13.02.04.04.04.08 0 .11a.36.36 0 0 0-.1.13c0 .04-.03.09-.05.15-.02.06-.06.08-.11.06-.06-.02-.08-.05-.06-.1l.07-.2a.48.48 0 0 1 .12-.17zM26.9 20.43c0-.06.04-.08.1-.08.06 0 .08.02.07.08a.88.88 0 0 0 0 .28c.01.06 0 .1-.06.11-.06.01-.1 0-.1-.06-.03-.08-.03-.19-.01-.33zM26.98 21.24c-.01-.05.01-.1.07-.1.05-.02.09 0 .1.05a.6.6 0 0 0 .09.28c.03.04.02.08-.03.11s-.1.02-.13-.02a.74.74 0 0 1-.1-.32zM27.42 21.9c-.04-.05-.04-.1 0-.13.05-.05.08-.04.12 0 .06.06.13.1.22.12.06.02.08.06.06.11-.01.06-.05.08-.1.07a.61.61 0 0 1-.3-.18zM28.17 22.15c-.06 0-.08-.04-.08-.1s.02-.08.08-.07h.26c.06 0 .08.04.08.1 0 .06-.02.09-.08.09-.12 0-.2 0-.26-.02zM28.69 23.96c.05 0 .09.01.1.07.02.06 0 .1-.05.1a.31.31 0 0 0-.15.05c-.04.04-.08.04-.13 0-.04-.04-.04-.08 0-.12a.44.44 0 0 1 .23-.1zM28.17 24.26c.06-.02.1 0 .13.05.02.05.01.08-.04.1a.75.75 0 0 0-.2.17c-.04.04-.08.03-.12 0-.04-.05-.04-.09 0-.13.09-.09.17-.15.23-.19zM27.61 24.8c.05-.03.1-.02.13.01.05.05.04.09 0 .12a1.7 1.7 0 0 0-.27.28c-.03.05-.07.05-.12 0-.04-.03-.04-.08 0-.12l.26-.29zM27.06 25.41c.04-.04.07-.04.12 0 .04.04.04.08 0 .13a.64.64 0 0 0-.1.18c-.02.05-.06.07-.12.06-.06-.02-.08-.06-.06-.11a.76.76 0 0 1 .16-.26zM26.7 26c.02-.06.05-.07.1-.04s.07.08.04.12l-.05.13c-.01.05-.05.07-.1.06-.06-.02-.08-.05-.07-.1l.07-.18zM26.76 26.52c-.05-.02-.06-.06-.03-.11.03-.06.07-.07.12-.04l.05.01c.06.01.08.05.06.1-.01.06-.05.08-.1.07a.45.45 0 0 1-.1-.03zM18.69 23.32c-.06-.01-.08-.04-.07-.1.02-.06.06-.08.12-.07.1.01.16.03.2.05.05.04.06.08.03.13s-.07.06-.12.03c-.02-.02-.05-.02-.07-.03h-.1zM19.18 23.6c-.04-.04-.04-.07 0-.12.04-.04.08-.04.12 0 .09.08.15.16.17.24.02.04 0 .08-.05.1-.06.01-.1 0-.12-.06 0-.03-.05-.08-.13-.16zM19.52 24.07c0-.06.03-.08.09-.08.05 0 .09.02.09.08a4.92 4.92 0 0 0 .06.26c0 .05-.02.08-.08.08s-.1-.03-.1-.08a.47.47 0 0 0-.03-.13l-.03-.13zM19.62 24.7c0-.06.02-.09.09-.09.05 0 .08.03.08.09l.01.11v.12c-.03.06-.06.07-.12.06-.06-.02-.08-.05-.06-.1v-.2zM19.52 25.32c.03-.05.07-.07.11-.03.06.03.07.07.04.12l-.12.24c-.02.05-.06.06-.1.03-.06-.03-.07-.06-.05-.12l.12-.24zM19.08 25.86c.04-.03.09-.03.12.01.05.04.05.08 0 .12a.84.84 0 0 1-.1.07l-.1.05c-.04.03-.09.02-.12-.03s-.02-.09.03-.12a.78.78 0 0 0 .17-.1zM18.24 26.11c-.06-.02-.07-.06-.04-.1.03-.06.07-.07.13-.05l.11.01c.06 0 .08.04.08.1s-.02.08-.08.08a.52.52 0 0 1-.2-.04zM17.93 25.68c.03.04.02.09-.01.13-.05.04-.09.04-.12 0a.68.68 0 0 1-.12-.23c-.01-.05 0-.1.06-.1.06-.02.1 0 .1.06l.08.14zM17.75 25.2c-.01.06-.04.09-.1.07-.06-.02-.08-.05-.07-.1l.01-.17v-.17c0-.05.03-.08.09-.08s.08.03.09.08a2 2 0 0 1-.02.38zM17.82 24.25c0 .06-.03.1-.09.1s-.1-.04-.1-.1c0-.14.02-.25.04-.31.01-.06.04-.08.1-.06s.08.05.07.1c-.02.05-.02.14-.02.27zM18.04 23.6c-.03.06-.07.07-.12.04-.05-.03-.07-.07-.03-.12a.56.56 0 0 1 .28-.27c.05-.02.09 0 .1.05.02.06 0 .1-.05.12-.06.02-.12.08-.18.19zM13.77 22.35c.03-.05.07-.06.11-.03l.25.15c.06.03.06.06.04.11-.03.05-.08.07-.13.04a.8.8 0 0 1-.12-.07l-.12-.08c-.05-.02-.06-.06-.04-.12zM14.43 23c-.04-.03-.05-.07-.02-.12.03-.05.06-.06.11-.03a.5.5 0 0 1 .13.11l.14.13c.04.03.04.07.02.12-.04.05-.07.06-.12.03l-.13-.12a.61.61 0 0 0-.13-.12zM14.93 23.58c-.03-.04-.02-.08.03-.1.05-.04.1-.03.13.02s.1.13.16.24c.04.04.04.08 0 .13-.05.04-.08.04-.12 0l-.2-.29zM15.38 24.25c-.01-.06 0-.09.06-.1.06-.02.1 0 .11.05.02.09.08.19.19.31.03.05.03.09-.01.13-.05.04-.09.04-.12 0a1 1 0 0 1-.23-.39zM15.76 25.01c-.02-.05 0-.08.05-.1.06-.01.1 0 .12.06l.09.2.07.18c.02.05 0 .1-.06.1-.06.02-.1 0-.11-.05a1.14 1.14 0 0 0-.07-.2l-.1-.19zM16.02 25.8c0-.07.01-.1.07-.12.06-.01.1 0 .1.07l.06.29c.01.05 0 .09-.06.1-.06.02-.1 0-.11-.05a3.95 3.95 0 0 1-.06-.3zM16.1 26.5c-.02-.05 0-.08.06-.1.06-.01.1 0 .11.06.02.05.03.1.03.18v.19c0 .05-.03.08-.08.08-.07 0-.1-.03-.1-.08l.01-.17a.4.4 0 0 0-.03-.16zM16.04 27.22c0-.06.03-.09.09-.09s.09.03.09.09l-.03.46c0 .05-.03.08-.09.08s-.08-.03-.08-.08l.02-.46zM15.83 27.96c.02-.05.06-.06.1-.04.06.04.08.08.06.13a1.8 1.8 0 0 1-.3.43c-.03.04-.07.04-.1 0-.05-.05-.05-.09-.02-.13.12-.14.21-.27.26-.4zM15.13 28.82a.51.51 0 0 1-.22.08c-.06 0-.09-.03-.09-.1s.03-.08.1-.08a.3.3 0 0 0 .17-.07l.15-.12c.04-.03.08-.02.1.03.04.05.03.1-.02.13l-.19.13zM14.4 28.85c.06-.02.1-.01.13.04s.02.08-.03.11a.8.8 0 0 1-.4.1c-.06 0-.09-.04-.09-.1 0-.05.03-.08.1-.08.12 0 .23-.03.3-.07zM13.68 28.97c.06 0 .09.04.09.1s-.03.09-.09.08c-.05 0-.18 0-.4-.03-.06 0-.1-.04-.1-.1s.04-.08.1-.08l.4.03zM12.86 28.84c.05 0 .08.04.08.1 0 .05-.02.08-.08.07a.63.63 0 0 1-.24-.05c-.05-.01-.07-.05-.05-.11.01-.06.05-.08.1-.06.07.03.13.05.19.05zM12.2 28.83a.5.5 0 0 1-.2-.08 2.4 2.4 0 0 1-.18-.14c-.04-.04-.04-.07 0-.12.04-.04.08-.04.12 0l.14.1c.06.04.1.06.16.07.06 0 .08.04.06.1-.02.05-.05.08-.1.07zM11.5 28.32c.06 0 .1.02.1.08 0 .07-.04.1-.1.09a.4.4 0 0 1-.2-.06 1.32 1.32 0 0 0-.17-.1c-.06-.02-.07-.06-.04-.11.03-.05.07-.07.13-.04l.14.08.14.06zM10.83 27.95c.04.04.04.09 0 .13-.04.04-.08.04-.13 0a4.3 4.3 0 0 0-.14-.12.61.61 0 0 1-.12-.13c-.02-.05-.01-.1.03-.12.06-.03.1-.02.13.03a.4.4 0 0 0 .1.12l.13.1zM9.92 27.23c-.03-.05 0-.09.05-.1.06-.02.1 0 .12.05.05.11.11.2.19.27.04.04.04.08 0 .12-.04.04-.09.05-.13 0a.96.96 0 0 1-.23-.34zM9.54 26.64c-.02-.05 0-.1.05-.13.04-.03.08-.02.1.04l.05.14c.02.06.05.1.08.13.04.03.05.06 0 .1-.03.05-.08.05-.13.02a.27.27 0 0 1-.08-.14 1.1 1.1 0 0 0-.07-.16zM9.22 25.89c0-.06.02-.08.09-.08.05 0 .09.02.1.08 0 .04.02.1.05.17l.06.18c.02.05 0 .09-.06.1-.06.02-.1 0-.11-.06 0-.03-.03-.1-.07-.19a.93.93 0 0 1-.06-.2zM9.2 24.92c.05 0 .08.03.08.08 0 .08.02.17.05.27.01.06 0 .1-.07.12-.06.01-.09 0-.1-.07A1.3 1.3 0 0 1 9.1 25c0-.05.03-.08.1-.08zM9.2 24.2c0-.06.04-.08.1-.06.06.01.08.04.06.1a4 4 0 0 0-.05.25c0 .05-.04.07-.1.06-.05-.02-.07-.05-.07-.1l.05-.26zM9.43 23.5c.04-.05.08-.06.13-.03s.06.07.03.12a.92.92 0 0 0-.12.27c0 .06-.04.08-.1.06s-.08-.05-.07-.1c.03-.12.08-.23.13-.32zM9.82 22.84c.04-.04.08-.04.12 0 .04.04.04.08 0 .12a.5.5 0 0 0-.1.22c-.01.06-.04.08-.1.06s-.08-.05-.07-.1a.65.65 0 0 1 .15-.3zM10.4 22.33c.04-.03.08-.02.11.03s.03.1-.02.13l-.15.1-.14.12c-.04.03-.08.03-.12 0-.05-.05-.05-.09 0-.13l.16-.13.16-.12zM10.86 22.27c-.05 0-.08-.03-.08-.09 0-.05.03-.09.08-.1.05 0 .13-.01.22-.04.1-.03.17-.05.23-.05s.09.03.09.09c0 .05-.03.08-.1.09a.8.8 0 0 0-.22.04l-.22.06zM11.82 22.06c-.05 0-.08-.03-.08-.1s.03-.08.08-.08h.35c.06 0 .09.03.09.09s-.03.09-.1.09h-.34zM12.68 22.07c-.05 0-.08-.03-.08-.1 0-.06.03-.08.08-.08.1 0 .22.02.4.06.05.02.07.05.05.11-.01.05-.04.08-.1.06l-.17-.04h-.18zM13.33 22.22c-.05 0-.07-.04-.05-.1.01-.05.05-.08.1-.07a.7.7 0 0 1 .13.05l.13.07c.05.03.06.07.03.12-.03.05-.08.06-.13.03l-.1-.05a.25.25 0 0 0-.1-.05zM18.22 12.92c-.03.05-.07.06-.12.03-.05-.03-.06-.07-.03-.12l.09-.13a.8.8 0 0 0 .1-.13c.02-.05.06-.06.11-.02.06.03.07.07.04.12-.09.1-.15.2-.19.25zM17.83 13.19c.04-.04.08-.03.11.02.03.06.02.1-.03.13-.05.04-.08.13-.08.26 0 .06-.03.08-.09.08s-.09-.03-.09-.08c0-.2.06-.33.18-.41zM17.54 14.11c0-.06.03-.08.09-.08s.09.02.08.08v.19l.02.18c.02.05 0 .1-.06.1-.06.02-.1 0-.11-.06-.02-.07-.03-.2-.02-.4zM17.88 15c.02.1.06.19.15.27.03.04.03.08-.01.12-.04.04-.09.04-.13 0a.7.7 0 0 1-.18-.35c-.01-.06.01-.1.07-.1.06-.02.1 0 .1.06zM18.47 15.75c.04.03.1.08.17.16l.2.14c.05.03.06.07.03.12-.03.05-.07.06-.13.03a1.43 1.43 0 0 1-.2-.15l-.2-.18c-.04-.04-.04-.07 0-.11.04-.05.08-.05.13-.01zM19.38 16.38c-.05 0-.08-.04-.08-.1s.03-.08.08-.08l.5.07c.06.01.09.04.09.1 0 .06-.03.09-.1.09a10.2 10.2 0 0 0-.49-.08zM20.44 16.29c-.05.03-.1.01-.12-.04-.03-.05-.02-.09.03-.11l.48-.24c.05-.03.1-.02.12.04.03.05.02.09-.03.11-.16.1-.32.17-.48.24zM21.22 15.59c0 .05-.03.08-.1.08s-.08-.03-.07-.08c0-.06.02-.13.05-.22.05-.1.07-.17.08-.21.01-.06.04-.08.1-.06.06.02.08.05.07.1a.8.8 0 0 1-.07.2.64.64 0 0 0-.06.19zM21.38 14.65c0 .06-.04.08-.1.06-.05-.01-.08-.05-.06-.1 0-.05 0-.1-.02-.17l-.06-.15c-.02-.06 0-.1.06-.11.06-.02.1 0 .11.06l.07.2a.4.4 0 0 1 0 .21zM21 13.74c.04.05.02.09-.03.12s-.1.02-.11-.04a3.05 3.05 0 0 1-.16-.37c-.02-.05 0-.09.06-.1.06-.02.09 0 .1.06l.15.33zM20.55 12.92c.04.05.04.09 0 .13-.05.04-.09.04-.13 0a1 1 0 0 1-.13-.18.53.53 0 0 0-.14-.17c-.05-.04-.06-.08-.02-.13.03-.06.07-.06.1-.03.06.04.11.1.17.19l.15.2zM19.83 12.33c.04.04.04.08 0 .13-.04.04-.08.04-.12 0a.38.38 0 0 0-.27-.1c-.06 0-.09-.04-.09-.1s.03-.08.09-.08c.15 0 .28.05.39.15zM18.99 12.2c.05-.02.09 0 .1.06.02.05 0 .1-.05.11a.51.51 0 0 1-.15.03h-.15c-.06.02-.1 0-.1-.07-.02-.05 0-.08.06-.1h.14c.06 0 .11-.02.15-.03z"/><path fill="#ffeeb2" fill-rule="evenodd" d="M11.8 11.11c0-.06.01-.09.07-.1.05-.02.09 0 .1.05.03.1.04.18.04.23 0 .06-.02.09-.08.09s-.09-.03-.09-.1l-.03-.17zM11.93 11.7c0-.06.03-.09.1-.09s.08.03.08.09v.48c0 .06-.03.08-.09.08s-.1-.02-.1-.08v-.48zM11.9 12.56c0-.06.04-.07.1-.06.06.01.08.05.06.1a.69.69 0 0 1-.08.28c-.03.05-.07.06-.12.03-.05-.03-.06-.07-.03-.11a.34.34 0 0 0 .05-.12l.02-.12zM11.7 13.18c.03-.05.07-.06.12-.03.05.03.06.07.03.12a.8.8 0 0 0-.05.19l-.02.2c-.01.05-.05.08-.1.08s-.09-.03-.08-.09l.03-.24c.01-.09.04-.16.07-.23zM11.33 14.1c.04-.04.07-.04.11 0 .04.05.05.08.01.13l-.1.14a1.4 1.4 0 0 1-.1.12c-.04.04-.08.04-.12 0-.04-.04-.05-.09 0-.12l.1-.14.1-.12zM10.76 14.63c.06 0 .09.03.09.1s-.03.08-.09.08h-.18l-.18.02c-.06 0-.1-.03-.1-.09s.04-.09.1-.09h.18c.08-.02.14-.02.18-.02zM9.8 14.58c.06 0 .1.02.1.09 0 .06-.04.09-.1.09h-.23a.72.72 0 0 1-.22-.07c-.05-.03-.06-.07-.02-.11.02-.06.06-.07.12-.04.04.02.1.04.17.04h.19zM8.95 14.28c.04.03.06.07.03.11-.04.05-.07.07-.12.04l-.17-.09a.54.54 0 0 1-.15-.1c-.03-.05-.03-.1.01-.14.04-.04.08-.04.12 0 .03.04.07.07.13.1l.14.08zM8.3 13.72c.03.04.03.08 0 .13-.05.04-.1.04-.13 0a2 2 0 0 1-.31-.56c-.02-.06 0-.1.05-.1.06-.02.1 0 .12.05.08.2.17.36.27.48zM8.01 12.78c0 .06-.03.1-.09.1s-.08-.04-.08-.1l-.02-.24c0-.1 0-.17.02-.24.01-.05.05-.07.1-.06.06.02.08.05.07.1-.01.06-.02.14-.01.22l.01.22zM8.14 11.9c-.01.06-.04.08-.1.07-.06-.02-.08-.06-.07-.11 0-.06.04-.18.1-.37.03-.05.06-.07.12-.06.06.02.08.05.06.1-.06.18-.1.3-.11.37zM8.29 11.11l.27-.32c.04-.04.08-.04.13 0 .04.04.04.08 0 .12l-.28.34c-.04.04-.08.04-.12 0-.04-.04-.04-.09 0-.14zM9.34 10.35c.04-.03.08-.02.11.03s.02.09-.03.12a.9.9 0 0 1-.16.08.77.77 0 0 0-.17.09c-.04.03-.09.03-.12-.01-.05-.04-.04-.08 0-.12l.18-.1c.1-.04.15-.07.19-.1zM9.94 10.38c-.06 0-.1-.03-.1-.09s.04-.08.1-.08c.22 0 .4 0 .54.03.05.02.07.05.06.1-.02.07-.06.09-.11.07a3.06 3.06 0 0 0-.5-.03zM10.83 10.47c-.05 0-.07-.04-.05-.1.01-.05.04-.08.1-.07l.2.03a.3.3 0 0 1 .17.08c.04.04.04.09 0 .13s-.09.05-.13 0c-.02-.03-.07-.05-.13-.06a1 1 0 0 1-.16 0zM11.43 10.71c-.06-.01-.08-.05-.07-.1s.06-.09.11-.07c.1.03.18.08.26.15.04.04.04.08 0 .13-.04.03-.08.04-.12 0a.4.4 0 0 0-.18-.1z"/><path fill="#f6e3a0" fill-rule="evenodd" d="M19.23 2.39c-.04.02-.06.01-.08-.02-.02-.03-.01-.06.02-.08a.54.54 0 0 1 .21-.06c.03 0 .05.02.05.06 0 .03-.02.05-.05.05a.3.3 0 0 0-.15.05zM19.68 2.32c-.04 0-.06-.02-.06-.05 0-.04.02-.06.06-.06h.18c.04 0 .06.02.06.06 0 .03-.02.05-.06.05h-.18zM20.2 2.36c-.04 0-.06-.02-.06-.06s.02-.05.05-.05h.15c.04 0 .05.02.05.05s-.01.06-.05.06h-.15zM20.6 2.4c-.03-.01-.04-.04-.03-.07 0-.04.03-.05.06-.04l.15.03c.04 0 .05.02.05.06 0 .04-.01.06-.05.05a.76.76 0 0 1-.18-.03zM21.11 2.51c-.03 0-.05-.02-.05-.06 0-.04.02-.06.05-.06.06 0 .13.02.24.05.04 0 .05.03.04.06-.01.04-.03.05-.07.04a.7.7 0 0 0-.2-.03zM21.73 2.61c-.03-.01-.04-.04-.02-.07.02-.03.05-.04.08-.03a.3.3 0 0 0 .1.03l.1.02c.04.01.06.03.05.07-.01.04-.03.05-.07.04a2.14 2.14 0 0 1-.24-.06zM22.29 2.82c-.04 0-.05-.03-.04-.07 0-.03.02-.04.06-.04.1.02.18.06.25.13.02.02.02.05 0 .07-.03.03-.05.03-.08 0a.43.43 0 0 0-.2-.1zM22.77 3.05c-.03-.01-.04-.04-.02-.07.01-.03.04-.04.07-.02l.19.1c.03.03.03.06.01.09-.01.03-.04.04-.07.02a1.68 1.68 0 0 0-.18-.12zM23.2 3.3c-.02-.02-.03-.05 0-.09.01-.03.04-.04.07-.01.1.07.18.12.24.14.03.02.03.04.01.07-.01.04-.04.04-.07.03a1.02 1.02 0 0 1-.24-.14zM23.54 3.56c-.01-.03 0-.05.04-.05s.06.02.06.05l.03.08c.02.04.01.06-.02.08-.03.02-.06.01-.07-.02a.33.33 0 0 1-.04-.14zM23.63 3.88c-.02-.01-.03-.03-.02-.06.01-.04.03-.05.07-.04.03.01.05.03.05.06.01.03 0 .06-.04.07-.03 0-.05 0-.06-.03zM26.89 9.66c-.04.01-.06 0-.07-.04 0-.04 0-.05.04-.06.09-.02.17-.04.25-.04.04 0 .05.02.05.06 0 .03-.01.05-.05.05a.97.97 0 0 0-.22.03zM27.68 9.52c.04 0 .06.02.06.06 0 .03-.02.05-.05.05l-.25.01c-.03 0-.05 0-.06-.04-.01-.03 0-.05.03-.06l.28-.02zM27.88 9.71c-.03-.01-.04-.04-.02-.07.02-.03.04-.04.07-.02l.14.04c.06.01.1.03.13.06s.03.05 0 .07c-.03.03-.05.03-.07 0a.23.23 0 0 0-.12-.04.35.35 0 0 1-.13-.04zM28.38 9.96c-.03 0-.05-.02-.05-.06 0-.04.02-.05.05-.05.1 0 .18.05.26.13.03.02.03.05 0 .07-.02.03-.05.03-.08 0a.27.27 0 0 0-.18-.09zM28.74 10.2c-.02-.02-.01-.04.02-.06.03-.02.06-.01.08.02l.12.14c.03.02.04.05.02.08-.01.03-.04.03-.07.02a.62.62 0 0 1-.17-.2zM29.06 10.62c-.03-.02-.04-.04-.02-.07.02-.04.04-.05.08-.03.08.05.14.13.17.24 0 .04 0 .06-.04.07-.04 0-.06 0-.07-.04a.3.3 0 0 0-.12-.17zM29.3 11.03c-.03-.02-.04-.05-.02-.08s.04-.04.07-.02c.06.03.12.1.17.22.02.03.01.06-.02.08-.03.02-.06.01-.07-.02a.95.95 0 0 1-.05-.1.2.2 0 0 0-.08-.08zM29.54 11.48c-.02-.03-.01-.05.02-.07.03-.02.05-.01.07.02l.12.27c.01.03 0 .05-.03.06-.04.01-.06 0-.08-.03l-.1-.25zM29.75 12.03c-.03-.02-.03-.05 0-.07.02-.03.05-.03.08-.01.03.03.06.07.08.13l.04.14c.02.03 0 .06-.03.07-.04 0-.06 0-.08-.04l-.03-.12a.21.21 0 0 0-.06-.1zM29.85 12.53c-.02-.03-.01-.05.02-.06.03-.02.06-.02.08.01.03.05.05.1.05.17l.01.17c0 .04-.02.06-.06.06s-.05-.02-.05-.06v-.14c0-.06-.03-.1-.05-.15zM29.84 13.13c0-.03.02-.04.06-.04.04 0 .05.01.05.04v.2c0 .02-.01.04-.05.04s-.06-.02-.06-.05v-.19zM29.84 18.14c-.02-.03-.02-.05 0-.08.03-.03.06-.03.08 0 .04.05.1.1.2.14.02.01.03.04.01.07-.02.03-.04.04-.08.03a.85.85 0 0 1-.21-.16zM30.21 18.47c-.03-.02-.03-.05 0-.08.03-.02.05-.03.08 0 .04.03.07.08.1.15l.07.16c.02.03 0 .05-.02.07-.04.02-.06.02-.07-.02a1.01 1.01 0 0 0-.07-.15.33.33 0 0 0-.09-.13zM30.38 19.16c0-.03 0-.05.04-.06.03-.01.05 0 .06.04.04.1.06.16.06.2.02.06.02.13 0 .2 0 .03-.03.04-.06.03-.04 0-.05-.03-.04-.07a.31.31 0 0 0-.01-.17l-.05-.17zM30.45 19.81c.01-.02.03-.04.07-.03.03 0 .05.03.04.06l-.02.14a.54.54 0 0 1-.04.12c-.01.03-.04.04-.07.02-.03-.02-.04-.05-.03-.08l.03-.1.02-.13zM30.3 20.35c.02-.03.04-.04.07-.03.03 0 .05.03.04.06l-.04.13a.42.42 0 0 0-.05.13c0 .03-.03.05-.07.04-.03-.01-.05-.04-.04-.07a.6.6 0 0 1 .05-.13l.05-.13zM30.07 20.88c0-.03.02-.05.05-.05.04 0 .06.02.06.05 0 .07-.03.14-.09.21-.02.04-.04.04-.07.02-.03-.02-.04-.04-.02-.07a.38.38 0 0 0 .07-.16zM29.81 21.27c0-.03.03-.04.06-.03.04.01.06.03.05.06a.32.32 0 0 1-.08.14l-.1.1c-.03.04-.05.04-.08.01-.02-.03-.03-.05 0-.08l.09-.09a.38.38 0 0 0 .06-.1zM29.34 21.67c.03-.02.05-.02.08 0 .02.03.02.06 0 .08a.76.76 0 0 1-.12.1c-.03.02-.06.02-.08-.01-.02-.04-.01-.06.02-.08a.64.64 0 0 0 .1-.09zM29 21.88c.03 0 .05 0 .07.04 0 .04 0 .06-.04.07a.37.37 0 0 1-.13.02.4.4 0 0 0-.13.03c-.03.02-.06 0-.08-.02-.02-.03-.01-.06.02-.08a.43.43 0 0 1 .14-.04 1 1 0 0 0 .15-.02z"/><path fill="url(#cu)" fill-rule="evenodd" d="M20.35 22.66c.11-.08.18-.15.19-.22 0-.07-.02-.13-.1-.2-.05-.06-.14-.07-.26-.04-.13.03-.21.1-.26.2-.06.1-.04.2.06.28.1.08.22.07.37-.02z" transform="matrix(1.25 0 0 -1.25 0 32.22)"/><path fill="url(#cv)" fill-rule="evenodd" d="M19.84 20.56c.07-.08.08-.15.04-.23-.06-.1-.1-.16-.14-.18-.06-.03-.16-.02-.3.03-.14.06-.19.16-.14.29.04.13.13.2.27.2.11 0 .2-.04.27-.11z" transform="matrix(1.25 0 0 -1.25 0 32.22)"/><path fill="url(#cw)" fill-rule="evenodd" d="M17.98 18.32c.18.06.3 0 .36-.16.06-.17.02-.29-.13-.36-.15-.06-.26 0-.33.18s-.04.3.1.34z" transform="matrix(1.25 0 0 -1.25 0 32.22)"/><path fill="url(#cx)" fill-rule="evenodd" d="M18.86 17.29c.07.04.14.05.2.02a.2.2 0 0 0 .12-.14.32.32 0 0 0 0-.2.28.28 0 0 0-.16-.15c-.14-.07-.23-.02-.26.14s0 .27.1.32z" transform="matrix(1.25 0 0 -1.25 0 32.22)"/><path fill="url(#cy)" fill-rule="evenodd" d="M21.53 19.09c.06.03.11.02.16-.02a.26.26 0 0 0 .1-.15c.05-.17-.01-.26-.19-.28-.17 0-.24.05-.23.2 0 .12.06.2.16.25z" transform="matrix(1.25 0 0 -1.25 0 32.22)"/><path fill="url(#cz)" fill-rule="evenodd" d="M22.89 20.77c.1-.14.1-.25.01-.35-.02-.03-.07 0-.15.07a.51.51 0 0 0-.14.25c-.03.1 0 .15.07.15s.14-.03.2-.12z" transform="matrix(1.25 0 0 -1.25 0 32.22)"/><path fill="#e3b746" fill-rule="evenodd" d="M22.53 9.88c-.1-.13-.14-.26-.09-.37.04-.1.1-.14.18-.15.15 0 .33.1.53.32.07.07.26.3.57.7.17.22.24.38.23.49 0 .04-.05.12-.13.22-.06.07-.13.06-.24-.01a1.16 1.16 0 0 1-.26-.27c-.14-.2-.4-.51-.79-.93z"/><path fill="#c2953c" fill-rule="evenodd" d="M22.56 9.38a.1.1 0 0 1 .06-.02c.15 0 .33.1.54.32l.56.7c.17.22.24.38.23.49 0 .04-.04.12-.13.22-.05.05-.1.06-.19.02a.88.88 0 0 1-.22-.18c.22 0 .33-.06.33-.18 0-.1-.08-.27-.23-.48-.15-.2-.32-.37-.5-.53l-.45-.36z"/><path fill="#e3b746" fill-rule="evenodd" d="M24.86 6.59c.18.07.57.32 1.15.75.6.44.95.74 1.06.89.12.14.15.28.1.4-.06.1-.15.14-.28.13-.1 0-.2-.06-.31-.17a3.87 3.87 0 0 0-.35-.33l-.62-.52a5.5 5.5 0 0 0-.79-.55 1.7 1.7 0 0 1-.45-.3c-.04-.06-.04-.14 0-.25.05-.15.22-.17.49-.05z"/><path fill="#c2953c" fill-rule="evenodd" d="m24.57 6.86.33.2c.78.52 1.29.91 1.5 1.18.12.15.26.24.42.27.15.03.27 0 .35-.11.03.1.02.2-.04.27s-.14.1-.24.09c-.1 0-.2-.06-.31-.17a5.5 5.5 0 0 0-1.75-1.4c-.22-.11-.36-.2-.43-.27a.2.2 0 0 1-.06-.2l.23.14z"/><path fill="#e3b746" fill-rule="evenodd" d="M27.98 3.37a.9.9 0 0 1 .2.02l.04.19c.01.08 0 .16-.04.23l-.07.1a1.9 1.9 0 0 0-.61.02c-.08.02-.2.1-.34.25-.17.18-.32.3-.43.38a.83.83 0 0 1-.58.08l-.51-.12-.32-.07c-.08-.04-.13-.11-.15-.25-.01-.13.02-.21.1-.25.06-.02.16-.03.3 0 .06 0 .23.06.49.17.23.07.4.08.48.01.07-.05.18-.18.34-.38a1 1 0 0 1 .55-.34c.2-.04.38-.05.55-.04z"/><path fill="#c2953c" fill-rule="evenodd" d="M27.77 3.65a.5.5 0 0 0 .27-.28l.14.02.04.19c.01.08 0 .16-.04.23l-.07.1a1.9 1.9 0 0 0-.61.02c-.08.02-.2.1-.34.25-.17.18-.32.3-.43.38a.83.83 0 0 1-.58.08l-.51-.12-.32-.07c-.08-.04-.13-.11-.15-.25v-.1c.03.06.1.13.2.18.2.1.4.18.57.22.24.06.42.04.55-.05.07-.04.21-.17.45-.4.18-.17.33-.27.44-.29.16-.02.3-.06.39-.1z"/><path fill="#e3b746" fill-rule="evenodd" d="m28.51 6.2.18-.05a1.56 1.56 0 0 1 .9 0c.21.05.38.13.51.23a1.34 1.34 0 0 1 .39.52.37.37 0 0 1-.17.22.25.25 0 0 1-.16.02l-.08-.02-.09-.2a.83.83 0 0 0-.26-.31.8.8 0 0 0-.38-.19.87.87 0 0 0-.38.02.5.5 0 0 0-.27.16c-.06.07-.11.1-.17.07-.06-.03-.1-.08-.1-.16a.96.96 0 0 1-.02-.21c.01-.07.05-.1.1-.1z"/><path fill="#c2953c" fill-rule="evenodd" d="M28.43 6.54c.2-.15.4-.24.6-.27.14-.02.32.03.54.15.2.1.34.14.4.12.08-.03.09-.11.01-.24l.12.08a1.27 1.27 0 0 1 .39.52c-.04.11-.1.18-.17.22a.25.25 0 0 1-.16.02l-.08-.02-.09-.2a.83.83 0 0 0-.26-.31.8.8 0 0 0-.38-.19.87.87 0 0 0-.38.02.5.5 0 0 0-.27.16c-.05.07-.1.1-.16.07-.05-.02-.1-.06-.11-.13z"/></svg>