<svg xmlns="http://www.w3.org/2000/svg" viewBox="0 0 800 561.8"><path fill="transparent" d="M0 0h800v562H0z"/><path fill="#6d86a4" d="m0 413 38-26 22-9 12-16 21-9 8-12 45-25 25-18 7-2 9-11 18-5 6-9 9-2 3-7 14-3 6 3 9-7 17-4 18-7 17-5 10-2 37-23 4-5 5 1 19-7 5-1v-7l26-14 11-9 5-4 11-15 14-6 5-9 18-10 8-6a639 639 0 0 0 51 18l2 5 16 3 5 7 12-4 16 10 19 24 23 19 4 9h5l1 5 10 4-1 3 7 9 11 13 16 10v6l31 30 20 16 26 21 17 18 17 9 10 14v191H0z"/><path fill="#184f8c" d="m482 122-8 6-18 10-5 9-14 6-11 15-5 4-11 9-26 14v7l-5 1-19 7-5-1-4 5-37 23-10 2-17 5-18 7-17 4-9 7-6-3-14 3-3 7-9 3-6 8-18 5-9 11-7 2-25 18-45 25-8 12-21 9-12 16-22 9-38 26v26l31 2 31-9 48 7 32-5 62-24 47-18 23-7 20-14 21-47 11-18 29-22 18-14-5 24-3 37 37-50 19-29 11-16-16 3 14-11 5-17-7-21 15-13 11-13 9-9 12-11v-7l5-8 3-7h-1z"/><path fill="#fffced" d="m483 122-2 5-5 6v5l-4 3 10-1 18 1s3-2 7-2l18 1 9 3v-1l-1-2-25-8-25-10z"/><path fill="#ccd6d7" d="m446 162-15 3-3 1-2 2-5 4-11 9-7 3 5 3h11l9-1 8-12 9-2 10-8-9-2zM423 208l-22 5-19 6h-13l-20 5 23-4 9 3 18-3-18 6-11 4 23-3 11-9 14-2zM191 285l15-1c4-2 10-6 13-6h13l15-2 21 1-7 7-2 7-18 10s-14 2-17 5c-2 2-12 5-12 5s2-8 4-9c3-1 19-7 21-9l9-9-22 5s-9 8-11 8h-21l-9 4 16-8h-13l13-5zM104 353c3-1 10-4 8-5-2-2-12-1-5-4l20-9 3 1s2 5 12 4l32-1-22 7s25-2 18 0l-25 2-21 3s-22 3-12 4c10 0-5 2-5 2l-10-1zM200 323l-19 8-6 9 29-2 9-7 16-8s-18 6-7-2l15-12-23 7-1 8-11 2z"/><path fill="#ccd6d7" d="m269 310-14 15-19 3 12 1s-23 11-17 11l27-3 16-2-22 15-43 17 18-19-17 12-21 4c4 0 19-13 19-13l-18 3-22 9-26 8-22 8-42 8-4-7-8 7s-21 13-16 13h39l-19 1-30 4-17 18 30-9s1 3 12 3c10 0 39-9 42-10 4 0-14 7-11 7 4 0 22-5 26-7l30-12 34-26-28 26s-12 10-9 10l45-7s-29 11-20 9c9-1 21-6 24-9l35-15s-30 7-17 2c12-5 20-13 23-14l27-21s-6 10-4 9c3-1 15-15 15-15l14-15s4 1 7-3l21-21 7-10-24 19-21 17 14-16-18 6s-21 5-19 3c3-2 11-14 11-14z"/><path fill="#fffced" d="m355 354 6 10 15 22 10 25-14-12-15-18 20 24-1 22-9 11 11 33-9-14-6-18-8-12-3-19 2-13-4-7-2 6-2 21-9-26c-2-1-5 16-5 16l-7-21-2 21 1 31-13-17-9-20 1 19-8-12 14 50-12-15c-3-6-7-20-10-24-2-4-4 24-4 24s-9-15-12-16c-3-2 5 26 5 26l-12-14s4 26 3 28c-1 3-13-14-13-14l4 21-5-8c-3-4-12-9-16-11l-15-7c-2 0 7-12 7-12l-4-12-13-15 10-3 25-10 26-8 16-9-7 1-13-1-17 15-9-2-12 8-2-2-13 7-9 3-19 10-27 6-16 7c-3 1-10 3-18 3-7 1-10-1-10-1l-11-4-23-2-19-1-21 9-5 7-9-5-4 2-9-5-5 4-2-6-9-10v15l13 11 15 32 2 24 10 12 1 30 21 18h5l-8-16 28 16h63l-11-10-6-15-18-10-4-12-18-7-13-23-22-22c-4-3 13 0 13 0l-6-17 13 12 16 2 4-11 4 9 4-5-1-9 8 4 15 26c1 3 11 13 11 13l3 14a337 337 0 0 0 32 48l6 13h59l18-11 17-9h-7l12-8 14-13-6-2 6-11 20-10 9 15c1 3 18 11 18 11l5 24 13 14h85l5-3-2-21 9-1 8-9 10-3 10-4 11 2 18-2h17l-15-58-7 27-12-62-13-20-5 11-11-7-4-8-4-2-7 14c-1 3-5 5-7 5-2-1-3 11-3 11l-1 24-12-4s-10-10-12-14l-12-21-8-17 5-2-15-31-2-4-1 10 3 13-7-2-6-7-9-15-9-8zM519 186c-5 1-76 19-72 19 4-1 49-10 45-8-5 1-34 7-24 7s32-4 36-5h11l-34 7s-42 14-38 14l47-7 35-10 6 2-37 14-25 5-3 10 9 2 10-7 12 2s5-4 10-5l21-4 17-2 17-8-6-7h-10s5-10-2-10c-6 1-13 4-13 2 0-3 5-10 0-10-6 1-12-1-12-1zM616 272l-10 9-3 10-20 8-1 10-21 9-7 6h-19l-21-14-9 2 25 27 24 41 8 35-9 7-7 9-17 5 14 10 22 30 10-18 24-12 15-17-20-14-15-35 17-13 9-13-4-28 15-15 16-2c6-1 23 4 23 1-1-2-3-9-11-9-9 0-18 3-19-1v-9l30-5s1-6-8-6c-8 0-19 1-16-3l17-16z"/></svg>
