<svg xmlns="http://www.w3.org/2000/svg" width="32" height="32" fill="none"><style>.a{fill:#fff}.b{fill:#c18874}.c{fill:#af7766}.d{fill:#e4f7fe}.e{fill:#58595b}.f{fill:#a7fecd}.g{fill:#73d6fa}.h{fill:#331546}@media (color-gamut:p3){.a{fill:oklch(100%0 0)}.b{fill:oklch(67.82%.076 40.14)}.c{fill:oklch(62.25%.075 37.61)}.d{fill:oklch(96.42%.022 221.81)}.e{fill:oklch(46.38%.003 264.53)}.f{fill:oklch(92.87%.108 158.72)}.g{fill:oklch(82.92%.106 224.1)}.h{fill:oklch(26.71%.091 309.82)}}@media (prefers-color-scheme:dark){.a{fill:#a4cced}.b{fill:#79402c}.c{fill:#6e3c2a}.d{fill:#8fabc9}.e{fill:#051e50}.f{fill:#0b43dc}.g{fill:#267d82}.h{fill:#8100b4}@media (color-gamut:p3){.a{fill:oklch(82.77%.063 243.49)}.b{fill:oklch(43.79%.085 39.88)}.c{fill:oklch(41.4%.076 40.37)}.d{fill:oklch(73.05%.054 250.34)}.e{fill:oklch(25.34%.097 261.77)}.f{fill:oklch(46.97%.237 263.8)}.g{fill:oklch(54.17%.08 200.64)}.h{fill:oklch(46.21%.232 311.1)}}}</style><path d="M31.676 8.191c-.259-.614-.668-1.043-1.153-1.207a1.492 1.492 0 0 0-1.291.176l.06-.308c.165-.907.202-1.677.113-2.354-.11-.836-.421-1.516-.9-1.965a1.4 1.4 0 0 0-1.329-.345c-.515.131-.958.526-1.248 1.112a6.177 6.177 0 0 0-.298.71 15.106 15.106 0 0 0-.023-.213c-.111-.959-.293-1.716-.556-2.315-.325-.741-.784-1.228-1.326-1.408-.48-.16-.978-.059-1.4.283-.458.37-.777.983-.898 1.726-.075.462-.1.907-.091 1.35a4.768 4.768 0 0 0-.71-1.004c-.542-.566-1.15-.761-1.756-.564-.46.15-.85.565-1.101 1.169-.277.666-.357 1.5-.22 2.287.24 1.384.648 2.131 1.163 3.077.289.53.626 1.148 1.017 2.038a5.535 5.535 0 0 0-.403.115c-1.126.366-2.115 1.205-2.786 2.362a6.268 6.268 0 0 0-.54 1.21 6.28 6.28 0 0 0-.54-1.21c-.67-1.157-1.66-1.996-2.785-2.362a5.652 5.652 0 0 0-.404-.115c.391-.89.728-1.508 1.017-2.038.515-.946.923-1.693 1.163-3.077.137-.787.057-1.62-.22-2.287-.25-.604-.641-1.02-1.101-1.17-.607-.196-1.214-.001-1.756.565-.246.257-.481.59-.71 1.003a7.365 7.365 0 0 0-.09-1.35c-.122-.741-.44-1.354-.899-1.725-.422-.342-.919-.443-1.4-.283-.542.18-1 .667-1.326 1.408-.263.6-.445 1.357-.556 2.315l-.023.213a6.146 6.146 0 0 0-.297-.71c-.29-.586-.734-.98-1.249-1.112a1.401 1.401 0 0 0-1.329.345c-.478.45-.79 1.13-.9 1.965-.09.677-.052 1.447.114 2.354.018.101.038.204.06.308a1.49 1.49 0 0 0-1.291-.176C.993 7.148.583 7.577.324 8.19a4.116 4.116 0 0 0-.31 1.951c.05.61.223 1.209.532 1.832.476.96 1.275 1.984 2.589 3.318l.002.003.003.003.011.011.009.009c.256.269.791 1.077 1.047 2.743.373 2.434.54 4.344.215 8.438-.072.9-.219 1.906.04 2.864.302 1.108 1.01 1.83 2.167 2.207.597.195 1.097.292 1.524.292.45 0 .816-.109 1.128-.325.638-.445.907-1.238 1.144-1.937.049-.144.1-.294.153-.439.48-1.309.543-1.352 1.084-1.624.975-.406 1.92-1.102 2.662-1.963a7.143 7.143 0 0 0 1.674-3.615l.002-.013.002.013a7.143 7.143 0 0 0 1.674 3.615c.743.86 1.687 1.557 2.662 1.963.54.272.603.316 1.084 1.624.053.145.104.294.153.439.238.7.506 1.492 1.145 1.936.31.217.678.326 1.127.326.426 0 .927-.097 1.524-.292 1.156-.377 1.865-1.099 2.166-2.207.26-.958.113-1.964.041-2.864-.325-4.094-.158-6.004.215-8.438.256-1.666.79-2.474 1.047-2.743l.009-.009.01-.011.003-.003.003-.003c1.314-1.334 2.113-2.357 2.589-3.318.309-.623.483-1.222.532-1.832a4.123 4.123 0 0 0-.31-1.95Z" class="a"/><path d="M14.47 18.973c-.635-.206-1.025.499-1.206 1.415l-.707-4.995c.435.596.511 1.083.99 1.952.183.333.426.523.718.618.515.167 1.054-.292 1.227-1.458.308-2.08-.983-4.426-3.024-5.09a4.819 4.819 0 0 0-1.461-.243c1.436-3.837 2.31-4.101 2.693-6.298.163-.937-.151-1.941-.777-2.145-1.71-.557-2.86 3.543-3.895 8.325.02-.586.033-1.354.066-1.825.234-3.369 1.04-5.14.725-7.076C9.666 1.213 9.006.73 8.38.937c-1.5.497-1.6 4.304-1.32 8.475.037.56.091 1.88.141 2.467-.143-.526-.377-1.688-.479-2.123-.749-3.2-.587-4.594-1.285-6.004-.386-.78-1.181-.898-1.608-.497-1.298 1.22-.34 4.458 1.104 8.062.162.404.531 1.26.707 1.675-.203-.286-.635-.993-.801-1.247-1.592-2.43-1.545-3.003-2.243-3.655-.487-.455-1.32-.444-1.712.486-.696 1.654.339 3.35 2.606 5.652l.001.001.034.034c.813.854 1.029 1.506 1.316 3.58.297 2.156.43 4.125.348 7.39-.05 2.003-1 4.282 1.543 5.11 2.543.828 2.615-.395 3.158-1.875.544-1.48.726-1.743 1.505-2.136 1.7-.7 3.5-2.458 3.845-4.785.242-1.637-.146-2.37-.771-2.574Z" class="b"/><path d="M9.187 24.555c1.77.576 3.499-.93 3.94-3.905.035-.236.06-.47.075-.7l-.437-3.087c-.448-1.11-1.195-1.907-2.11-2.205-1.771-.576-3.5.93-3.94 3.905-.442 2.974.7 5.415 2.472 5.992Z" class="c"/><path d="M12.165 15.537c.35-.308.62-.858.498-1.483a1.282 1.282 0 0 0-.216-.515c-.026-.035.003-.1.035-.078.33.21.495.799.429 1.309-.058.507-.314.963-.657 1.07-.126.046-.197-.2-.09-.303Z" class="a"/><path d="M10.643 13.936c.1-.303.128-.656.075-.985-.053-.327-.175-.67-.383-.832-.014-.01-.02-.037-.013-.058.006-.021.022-.028.036-.023a.368.368 0 0 1 .15.065c.206.151.353.435.434.752.109.416.097.926-.13 1.25-.082.125-.216-.012-.168-.169Z" class="d"/><path d="M13.347 19.916c.405-2.733-.702-5.415-2.473-5.992-1.77-.576-3.535 1.172-3.94 3.905-.405 2.733.702 5.416 2.473 5.992 1.77.576 3.534-1.172 3.94-3.905Z" class="a"/><path d="M9.84 23.21c-1.618-.526-2.662-2.756-2.26-5.473.404-2.717 1.982-4.093 3.6-3.566.3.097.58.253.834.46a2.936 2.936 0 0 0-1.14-.706c-1.77-.577-3.499.93-3.94 3.904-.44 2.975.702 5.416 2.473 5.992 1.567.51 3.101-.611 3.739-2.938-.636 1.882-1.958 2.766-3.307 2.327Z" class="d"/><path d="M7.235 17.524c-.624.139-1.181-.854-.948-1.736.03-.115.074-.222.13-.311.025-.04.068.001.054.05-.056.19-.075.4-.056.6.06.646.457.985.862 1.056.127.03.128.297.002.33l-.045.011ZM8.593 14.9c-.533-.115-.808-1.231-.559-1.89a.667.667 0 0 1 .063-.124c.011-.022.032-.028.046-.007a.06.06 0 0 1 .006.049 1.081 1.081 0 0 0-.042.248c-.016.259.028.525.105.755.077.227.193.424.335.566.047.046.096.087.147.122.105.076.058.31-.057.29l-.044-.009ZM7.14 20.111l-1.24.071c-.07.003-.085-.143-.018-.17l1.199-.474c.105-.041.213.051.24.207.034.177-.058.361-.182.366Z" class="d"/><path d="M4.84 11.746a25.36 25.36 0 0 1-1.425-2.434l-.004-.007c-.044-.085-.473-.878-.86-.682-.194.099-.289.39-.196.86.327 1.646 3.286 3.51 3.286 3.51-.202-.287-.635-.993-.801-1.247Z" class="c"/><path d="m7.201 11.845-.002-.014v.01l.002.004Z" class="e" opacity=".5"/><path d="M9.815 4.166c-.017-.445-.095-.997-.355-1.237-.225-.207-.497-.108-.737.41-.839 1.82.305 7.715.305 7.715.02-.586.033-1.354.066-1.825.154-2.21.553-3.731.721-5.064Zm1.192 7.006a10.618 10.618 0 0 0-1.513.114s1.579-1.942 1.513-.114Zm-2.66 19.424c-2.48-.074-2.154-2.106-2.508-7.152-.354-5.046-1.331-7.44-1.331-7.44.125.466.224 1.05.333 1.84.298 2.156.431 4.124.349 7.39-.05 2.003-1 4.282 1.543 5.11.708.23 1.225.302 1.614.253Zm.995-2.428c-.181 1.487-.376 2.354-.995 2.429 1.005-.128 1.152-1.061 1.544-2.128.544-1.48.726-1.744 1.505-2.136.078-.032.156-.067.234-.103-1.547.63-2.136.687-2.288 1.938Z" class="c"/><path d="M7.246 23.697c-.104-.627.103-1.32.467-1.668.053-.054.127-.033.163.046.041.088.018.212-.048.256a.981.981 0 0 0-.228.219c-.141.183-.24.434-.288.707a1.865 1.865 0 0 0-.025.43c.002.036-.035.046-.04.01Zm1.638 1.453c-.232-.548-.18-1.302.09-1.8.04-.077.114-.091.166-.033.057.065.061.194.009.266a1.424 1.424 0 0 0-.171.314 1.978 1.978 0 0 0-.057 1.224c.01.033-.023.06-.037.028Z" class="d"/><path d="M17.53 18.973c.634-.206 1.025.499 1.205 1.415l.708-4.995c-.435.596-.512 1.083-.99 1.952-.184.333-.426.523-.719.618-.514.167-1.053-.292-1.226-1.458-.308-2.08.982-4.426 3.024-5.09a4.818 4.818 0 0 1 1.46-.243c-1.435-3.837-2.31-4.101-2.692-6.298-.163-.937.151-1.941.777-2.145 1.71-.557 2.86 3.543 3.895 8.325-.02-.586-.034-1.354-.066-1.825-.234-3.369-1.041-5.14-.725-7.076.153-.94.813-1.423 1.438-1.216 1.5.497 1.6 4.304 1.32 8.475-.038.56-.092 1.88-.142 2.467.143-.526.378-1.688.48-2.123.748-3.2.587-4.594 1.284-6.004.387-.78 1.182-.898 1.609-.497 1.298 1.22.339 4.458-1.104 8.062-.162.404-.532 1.26-.707 1.675.202-.286.635-.993.8-1.247 1.592-2.43 1.546-3.003 2.244-3.655.487-.455 1.32-.444 1.712.486.696 1.654-.339 3.35-2.606 5.652l-.002.001-.033.034c-.813.854-1.03 1.506-1.316 3.58-.298 2.156-.43 4.125-.348 7.39.05 2.003 1 4.282-1.543 5.11-2.543.828-2.615-.395-3.159-1.875-.544-1.48-.725-1.743-1.505-2.136-1.7-.7-3.499-2.458-3.844-4.785-.243-1.637.145-2.37.771-2.574Z" class="b"/><path d="M22.813 24.555c-1.77.576-3.5-.93-3.94-3.905a8.781 8.781 0 0 1-.076-.7l.438-3.087c.447-1.11 1.195-1.907 2.11-2.205 1.771-.576 3.5.93 3.94 3.905.442 2.974-.701 5.415-2.472 5.992Z" class="c"/><path d="M19.835 15.537a1.58 1.58 0 0 1-.498-1.483 1.28 1.28 0 0 1 .215-.515c.027-.035-.002-.1-.035-.078-.33.21-.494.799-.428 1.309.057.507.314.963.657 1.07.125.046.196-.2.089-.303Z" class="a"/><path d="M21.356 13.936a2.157 2.157 0 0 1-.075-.985c.054-.327.176-.67.384-.832.014-.01.02-.037.013-.058-.007-.021-.022-.028-.036-.023a.368.368 0 0 0-.15.065c-.206.151-.353.435-.435.752-.108.416-.096.926.13 1.25.082.125.217-.012.17-.169Z" class="d"/><path d="M22.592 23.824c1.771-.577 2.878-3.26 2.473-5.992-.405-2.733-2.17-4.481-3.94-3.905-1.771.576-2.878 3.259-2.473 5.992.405 2.733 2.17 4.481 3.94 3.905Z" class="a"/><path d="M22.16 23.21c1.618-.526 2.662-2.756 2.259-5.473s-1.982-4.093-3.6-3.566a2.594 2.594 0 0 0-.834.46c.337-.328.72-.57 1.14-.706 1.771-.577 3.5.93 3.94 3.904.442 2.975-.701 5.416-2.472 5.992-1.567.51-3.101-.611-3.739-2.938.636 1.882 1.957 2.766 3.306 2.327Z" class="d"/><path d="M24.765 17.524c.624.139 1.18-.854.947-1.736a1.116 1.116 0 0 0-.13-.311c-.024-.04-.068.001-.053.05.056.19.075.4.055.6-.059.646-.457.985-.861 1.056-.128.03-.128.297-.002.33l.044.011ZM23.407 14.9c.533-.115.807-1.231.558-1.89a.67.67 0 0 0-.062-.124c-.011-.022-.033-.028-.046-.007a.06.06 0 0 0-.007.049c.024.077.037.162.042.248.016.259-.027.525-.104.755a1.46 1.46 0 0 1-.335.566 1.109 1.109 0 0 1-.147.122c-.105.076-.059.31.057.29l.044-.009Zm1.453 5.211 1.24.071c.07.003.084-.143.018-.17l-1.2-.474c-.104-.041-.212.051-.24.207-.033.177.059.361.183.366Z" class="d"/><path d="M27.16 11.746a25.37 25.37 0 0 0 1.425-2.434l.004-.007c.044-.085.473-.878.86-.682.194.099.288.39.195.86-.326 1.646-3.285 3.51-3.285 3.51.202-.287.635-.993.8-1.247h.001Z" class="c"/><path d="m24.799 11.845.002-.014v.01l-.002.004Z" class="e" opacity=".5"/><path d="M22.184 4.166c.018-.445.095-.997.356-1.237.225-.207.497-.108.736.41.84 1.82-.304 7.715-.304 7.715-.02-.586-.034-1.354-.066-1.825-.154-2.21-.554-3.731-.721-5.064Zm-1.191 7.006c.727-.008 1.513.114 1.513.114s-1.579-1.942-1.513-.114Zm2.66 19.424c2.48-.074 2.153-2.106 2.508-7.152.354-5.046 1.33-7.44 1.33-7.44-.125.466-.224 1.05-.333 1.84-.298 2.156-.43 4.124-.348 7.39.05 2.003 1 4.282-1.543 5.11-.709.23-1.226.302-1.614.253Zm-.995-2.428c.181 1.487.375 2.354.995 2.429-1.006-.128-1.153-1.061-1.545-2.128-.544-1.48-.725-1.744-1.505-2.136a5.513 5.513 0 0 1-.234-.103c1.548.63 2.137.687 2.289 1.938Z" class="c"/><path d="M24.753 23.697c.105-.627-.102-1.32-.466-1.668-.054-.054-.127-.033-.163.046-.041.088-.018.212.047.256.083.058.16.128.229.219.14.183.24.434.288.707.024.138.034.284.025.43-.003.036.034.046.04.01Zm-1.637 1.453c.231-.548.18-1.302-.091-1.8-.04-.077-.114-.091-.165-.033-.058.065-.062.194-.01.266.068.093.126.196.172.314a1.979 1.979 0 0 1 .057 1.224c-.01.033.023.06.037.028Z" class="d"/><path d="M10.228 21.414c1.04 0 1.882-1.3 1.882-2.904 0-1.603-.843-2.903-1.882-2.903s-1.881 1.3-1.881 2.903c0 1.604.842 2.904 1.881 2.904Z" class="f"/><path d="M11.652 18.464c0 .27-.334.44-.389.665-.06.247.11.701-.004.88-.117.184-.433-.045-.592.052-.159.098-.262.59-.439.59s-.286-.496-.439-.59c-.159-.097-.474.132-.592-.052-.114-.179.057-.633-.004-.88-.055-.224-.388-.395-.388-.665s.333-.44.388-.664c.06-.248-.11-.702.004-.88.118-.185.433.044.592-.053.159-.097.262-.59.44-.59.176 0 .285.496.438.59.159.097.475-.132.592.053.114.178-.056.632.004.88.055.223.389.394.389.664Z" class="g" opacity=".75" style="mix-blend-mode:multiply"/><path d="M10.228 19.618c.49 0 .887-.612.887-1.367 0-.756-.397-1.368-.887-1.368s-.886.612-.886 1.368c0 .755.397 1.367.886 1.367Z" class="h"/><path d="M11.23 18.375c.343 0 .621-.429.621-.958 0-.53-.278-.959-.621-.959-.343 0-.621.43-.621.959 0 .53.278.958.62.958Zm-1.002.895c-.545-.09-.543-.087-.604-.895-.062.808-.06.805-.605.896.545.09.543.087.605.895.061-.808.059-.804.604-.895Z" class="a"/><path d="M21.771 21.414c1.04 0 1.882-1.3 1.882-2.904 0-1.603-.843-2.903-1.882-2.903s-1.88 1.3-1.88 2.903c0 1.604.841 2.904 1.88 2.904Z" class="f"/><path d="M23.195 18.464c0 .27-.334.44-.389.665-.06.247.11.701-.004.88-.117.184-.433-.045-.592.052-.158.098-.262.59-.439.59s-.286-.496-.439-.59c-.158-.097-.474.132-.592-.052-.113-.179.057-.633-.004-.88-.054-.224-.388-.395-.388-.665s.334-.44.388-.664c.06-.248-.11-.702.004-.88.118-.185.434.044.592-.053.16-.097.262-.59.44-.59.176 0 .285.496.438.59.16.097.475-.132.592.053.114.178-.056.632.004.88.055.223.389.394.389.664Z" class="g" opacity=".75" style="mix-blend-mode:multiply"/><path d="M21.771 19.618c.49 0 .887-.612.887-1.367 0-.756-.397-1.368-.887-1.368s-.886.612-.886 1.368c0 .755.397 1.367.886 1.367Z" class="h"/><path d="M22.773 18.375c.343 0 .621-.429.621-.958 0-.53-.278-.959-.62-.959-.344 0-.622.43-.622.959 0 .53.278.958.621.958Zm-1.002.895c-.545-.09-.543-.087-.604-.895-.062.808-.06.805-.605.896.546.09.543.087.605.895.061-.808.059-.804.604-.895Z" class="a"/><path d="M6.723 9.756c-.48-2.048-.585-3.356-.783-4.402-.107-.31-.27-.605-.502-.649-.245-.047-.451.193-.52.772-.227 1.94 2.066 5.99 2.269 6.343-.144-.55-.366-1.644-.464-2.064Zm18.554 0c.48-2.048.585-3.356.783-4.402.107-.31.27-.605.502-.649.245-.047.451.193.52.772.227 1.94-2.066 5.99-2.269 6.343.144-.55.366-1.644.464-2.064Z" class="c"/></svg>